<?xml version="1.0" encoding="UTF-8"?>
<svg xmlns="http://www.w3.org/2000/svg" onmouseup="{ if(window.parent.document.onmouseup) window.parent.document.onmouseup(arguments[0]);}" xml:space="preserve" style="enable-background:new 0 0 180.21 521.02;" viewBox="0 0 180.21 521.02" y="0px" x="0px" id="Layer_1" version="1.1" xmlns:xlink="http://www.w3.org/1999/xlink"><style type="text/css">
	.st0{fill-rule:evenodd;clip-rule:evenodd;fill:url(#SVGID_1_);}
	.st1{fill-rule:evenodd;clip-rule:evenodd;fill:#020203;}
	.st2{fill-rule:evenodd;clip-rule:evenodd;fill:#E9F3F4;}
	.st3{fill-rule:evenodd;clip-rule:evenodd;fill:#C4D5D7;}
	.st4{fill-rule:evenodd;clip-rule:evenodd;fill:#9F634F;}
	.st5{fill-rule:evenodd;clip-rule:evenodd;fill:#513327;}
	.st6{fill-rule:evenodd;clip-rule:evenodd;fill:#8D5943;}
	.st7{fill-rule:evenodd;clip-rule:evenodd;fill:#674333;}
	.st8{fill-rule:evenodd;clip-rule:evenodd;fill:#2E1B16;}
	.st9{fill-rule:evenodd;clip-rule:evenodd;fill:#FFFFFF;}
	.st10{fill-rule:evenodd;clip-rule:evenodd;fill:#904A40;}
	.st11{fill-rule:evenodd;clip-rule:evenodd;fill:#42211E;}
	.st12{fill-rule:evenodd;clip-rule:evenodd;fill:#60302A;}
	.st13{fill-rule:evenodd;clip-rule:evenodd;fill:#D6876D;}
	.st14{fill-rule:evenodd;clip-rule:evenodd;fill:#EDC393;}
	.st15{fill-rule:evenodd;clip-rule:evenodd;fill:#AD343E;}
	.st16{fill-rule:evenodd;clip-rule:evenodd;fill:#C0CCCC;}
	.st17{fill-rule:evenodd;clip-rule:evenodd;fill:#DB5458;}
	.st18{fill-rule:evenodd;clip-rule:evenodd;fill:#771B25;}
	.st19{fill-rule:evenodd;clip-rule:evenodd;fill:#7A3F36;}
	.st20{fill-rule:evenodd;clip-rule:evenodd;fill:#FAB335;}
	.st21{fill-rule:evenodd;clip-rule:evenodd;fill:#231D31;}
	.st22{fill-rule:evenodd;clip-rule:evenodd;fill:#413559;}
	.st23{fill-rule:evenodd;clip-rule:evenodd;fill:#988BBA;}
	.st24{fill-rule:evenodd;clip-rule:evenodd;fill:#B5ABCD;}
	.st25{fill-rule:evenodd;clip-rule:evenodd;fill:#A02532;}
	.st26{fill-rule:evenodd;clip-rule:evenodd;fill:#734E52;}
	
		.st27{fill-rule:evenodd;clip-rule:evenodd;fill:none;stroke:#020203;stroke-linecap:round;stroke-linejoin:round;stroke-miterlimit:3;}
	.st28{fill-rule:evenodd;clip-rule:evenodd;fill:#402820;}
</style><symbol viewBox="-23.6 -23.6 47.2 47.2" id="Symbol_11"><radialGradient gradientUnits="userSpaceOnUse" r="24.2998" cy="0" cx="0" id="SVGID_1_"><stop style="stop-color:#F6AC8E" offset="0"/><stop style="stop-color:#EDC393" offset="0.9451"/></radialGradient><path data-cppathid="10000" d="M-16.7,16.7c4.6,4.6,10.17,6.9,16.7,6.9s12.1-2.3,16.7-6.9c4.6-4.6,6.9-10.17,6.9-16.7s-2.3-12.1-6.9-16.7   C12.1-21.3,6.53-23.6,0-23.6s-12.1,2.3-16.7,6.9c-4.6,4.6-6.9,10.17-6.9,16.7S-21.3,12.1-16.7,16.7z" class="st0"/></symbol><symbol viewBox="-13.41 -16.44 26.82 32.89" id="Symbol_8"><g id="Layer_3_1_"><path data-cppathid="10001" d="M12.81-0.5c0,2.37-0.43,4.58-1.3,6.65c-1.83,4.5-4.88,6.95-9.15,7.35c-4.43,0.53-8.33-1.3-11.7-5.5    c-1.4-1.63-2.48-3.42-3.25-5.35c-0.23-0.57-0.43-1.17-0.6-1.8c0.08,0.63,0.19,1.26,0.33,1.88c0.38,1.66,0.97,3.24,1.77,4.73    c0.63,1.2,1.42,2.33,2.35,3.4c3.37,4.2,7.27,6.03,11.7,5.5c4.27-0.4,7.32-2.85,9.15-7.35c0.37-0.9,0.65-1.82,0.85-2.75    c0.47-2.07,0.57-4.25,0.3-6.55c-0.17-0.67-0.33-1.37-0.5-2.1C12.8-1.76,12.81-1.13,12.81-0.5z" class="st1"/><path data-cppathid="10002" d="M-12.59,2.66c8.71,3.47,16.99,1.6,24.82-5.62c-1.18-3.8-3.1-6.88-5.77-9.23c-2.6-2.2-5.35-3.32-8.25-3.35    c-3,0.1-5.55,1.3-7.65,3.6c-1.73,2-2.82,4.35-3.25,7.05c-0.23,1.17-0.32,2.3-0.25,3.4C-12.97-0.06-12.85,1.32-12.59,2.66z" class="st2"/><path data-cppathid="10003" d="M12.24-2.97C4.4,4.25-3.88,6.13-12.59,2.66c0.77,1.93,1.85,3.72,3.25,5.35c3.37,4.2,7.27,6.03,11.7,5.5    c4.27-0.4,7.32-2.85,9.15-7.35c0.87-2.07,1.3-4.28,1.3-6.65c-0.17-0.7-0.33-1.43-0.5-2.2C12.29-2.78,12.26-2.88,12.24-2.97z" class="st3"/><path data-cppathid="10004" d="M-13.19,0.86c0.17,0.63,0.37,1.23,0.6,1.8c-0.27-1.33-0.38-2.72-0.35-4.15c-0.07-1.1,0.02-2.23,0.25-3.4    c0.43-2.7,1.52-5.05,3.25-7.05c2.1-2.3,4.65-3.5,7.65-3.6c2.9,0.03,5.65,1.15,8.25,3.35c2.67,2.35,4.6,5.42,5.77,9.23    c0.02,0.09,0.05,0.19,0.08,0.27c0.17,0.77,0.33,1.5,0.5,2.2c0-0.63-0.02-1.27-0.05-1.9c-0.05-0.21-0.1-0.43-0.15-0.65    c-0.05-0.18-0.1-0.36-0.15-0.55c-1.2-3.93-3.2-7.1-6-9.5c-2.67-2.2-5.48-3.32-8.45-3.35c-3.07,0.1-5.67,1.3-7.8,3.6    c-1.8,2-2.92,4.35-3.35,7.05c-0.23,1.17-0.32,2.3-0.25,3.4C-13.42-1.26-13.35-0.18-13.19,0.86z" class="st4"/></g></symbol><symbol viewBox="-7.77 -9.3 15.55 18.6" id="Symbol_9"><g id="Layer_3_2_"><g><g><path data-cppathid="10005" d="M7.65-1.83C7.37-3.62,6.66-5.22,5.52-6.6c-1.53-1.8-3.37-2.7-5.5-2.7s-3.97,0.9-5.5,2.7      c-1.53,1.83-2.3,4.03-2.3,6.6v0.05c0.29,0.19,0.58,0.36,0.88,0.53C-6.92,0.38-6.92,0.19-6.92,0c0-2.33,0.68-4.33,2.05-6      c1.33-1.63,2.97-2.45,4.9-2.45c1.9,0,3.52,0.82,4.85,2.45c1.15,1.41,1.82,3.05,2,4.92c0.15-0.13,0.3-0.28,0.45-0.42      C7.43-1.61,7.54-1.71,7.65-1.83z" class="st5"/><path data-cppathid="10006" d="M6.88-1.08C6.7-2.95,6.03-4.59,4.88-6C3.54-7.63,1.93-8.45,0.02-8.45c-1.93,0-3.57,0.82-4.9,2.45      c-1.37,1.67-2.05,3.67-2.05,6c0,0.19,0.01,0.38,0.02,0.58C-2.95,2.83,0.75,2.97,4.18,1C5.09,0.46,5.99-0.23,6.88-1.08z" class="st6"/><path data-cppathid="10007" d="M-6.9,0.58C-6.8,2.66-6.13,4.47-4.88,6c1.33,1.63,2.97,2.45,4.9,2.45c1.9,0,3.52-0.82,4.85-2.45      c1.37-1.67,2.05-3.67,2.05-6c0-0.36-0.02-0.72-0.05-1.08C5.99-0.23,5.09,0.46,4.18,1C0.75,2.97-2.95,2.83-6.9,0.58z" class="st7"/><path data-cppathid="10008" d="M6.88-1.08C6.91-0.72,6.93-0.36,6.93,0c0,2.33-0.68,4.33-2.05,6C3.54,7.63,1.93,8.45,0.02,8.45      c-1.93,0-3.57-0.82-4.9-2.45C-6.13,4.47-6.8,2.66-6.9,0.58c-0.29-0.17-0.58-0.34-0.88-0.53c0.01,2.54,0.78,4.71,2.3,6.5      c1.53,1.83,3.37,2.75,5.5,2.75s3.97-0.92,5.5-2.75C7.02,4.75,7.77,2.57,7.77,0c0-0.63-0.04-1.24-0.12-1.83      C7.54-1.71,7.43-1.61,7.33-1.5C7.18-1.35,7.03-1.21,6.88-1.08z" class="st8"/></g></g><g><path data-cppathid="10009" d="M-0.56,5.01C0.15,6.15,1.01,6.72,2,6.72c1,0,1.84-0.57,2.52-1.71c0.71-1.14,1.07-2.51,1.07-4.1     s-0.36-2.96-1.07-4.1C3.84-4.33,3-4.9,2-4.9c-1,0-1.85,0.57-2.56,1.71c-0.68,1.14-1.03,2.51-1.03,4.1S-1.24,3.87-0.56,5.01z" class="st1"/></g><g><g><path data-cppathid="10010" d="M3.65,6.74c0.65,0,1.21-0.37,1.67-1.11C5.8,4.86,6.04,3.95,6.04,2.9S5.8,0.95,5.31,0.21      C4.86-0.56,4.3-0.95,3.65-0.95c-0.66,0-1.22,0.38-1.71,1.15C1.48,0.95,1.25,1.84,1.25,2.9s0.23,1.96,0.68,2.73      C2.42,6.37,2.99,6.74,3.65,6.74z" class="st9"/></g></g></g></symbol><g><g><path data-cppathid="10011" d="M123.66,36.68c2.27-0.81,4.42-1.24,6.47-1.3c10.43,4.98,18.31,22.31,23.63,51.99    c0.02,0.29,0.05,0.58,0.08,0.86c0.85,8.79-1.88,16.46-8.18,23.02c-2.49,2.58-5.52,4.99-9.09,7.24c1.44-2.49,2.7-4.99,3.79-7.52    c3.04-7.11,4.69-14.43,4.95-21.95l-1.71-8.65c-1.4,9.86-4.89,19.93-10.48,30.21c-1.71,3.17-3.63,6.36-5.75,9.56l-14.98,3.84    c3.48-3.85,6.26-7.92,8.32-12.22c0.28-0.61,0.54-1.21,0.8-1.8c0.81-1.95,1.48-3.94,2.02-5.97c-1.55,2.25-3.14,4.18-4.78,5.8    c-2.49,2.49-5.07,4.26-7.74,5.31c0.28-6.03,1.06-9.48,2.35-10.36c4.31,0.2,7.91-0.95,10.81-3.45c3.52-3.37,4.44-8.8,2.76-16.28    c5.88-7.28,9.1-15.22,9.67-23.83c0.02-0.2,0.04-0.41,0.06-0.61C136.76,48.76,132.43,40.79,123.66,36.68z M122.61,76.29    c-0.61-0.29-1.27-0.3-1.99-0.03c-2.54,0.98-5.79,5.47-9.73,13.49c-3.22-1.18-5.5-4.47-6.83-9.87c2.87,0.66,5.85,0.99,8.93,0.97    c1.49-7.04,1.23-13.44-0.8-19.21c-2.95-8.33-9.54-15.34-19.79-21.03c7.08,6.95,11.73,13.94,13.96,20.98    c1.58,4.99,1.93,10.01,1.05,15.06L97.4,77.67c-7.09-3.13-13.47-8.57-19.13-16.31c-0.64-0.88-1.27-1.79-1.88-2.71    c0.29-5.47,1.11-11.1,2.43-16.89l-3.59,5c-2.49,4.79-3.88,9.64-4.17,14.54c-0.41,6.38,1.04,12.84,4.34,19.4    c-5.12-5.66-8.35-12.14-9.67-19.46c-0.53-2.86-0.77-5.83-0.72-8.93c0.06-3.37,0.45-6.89,1.19-10.56L53.98,56.94    c-0.96,1.34-1.81,2.75-2.54,4.2c-3.8,7.41-4.88,16.05-3.26,25.93l1.38,11.83c-4.27-6.85-7.39-14.35-9.34-22.5    c-3.74-16.36,0.85-27.69,13.76-33.97c2.87-1.4,6.16-2.55,9.87-3.45l-7.32-0.86c3.19-4.29,7.46-6.73,12.82-7.32l-1.74,6.52    c1.75-2.69,3.77-4.9,6.05-6.63c5.53-4.2,12.63-5.64,21.31-4.31c19.64,8.14,30.66,18.61,33.06,31.4c0.11,1.36,0.14,2.7,0.08,4.01    C127.83,67.32,126,72.16,122.61,76.29z M84.25,201.33c0-0.61,0.02-1.21,0.06-1.8c0.06-1.92,0.14-3.8,0.25-5.64    c0.26-4.18,0.66-8.19,1.22-12.02c0.53-3.85,1.22-7.53,2.05-11.03c0.57-2.36,1.2-4.64,1.88-6.85c1.81-5.77,4.07-11,6.79-15.67    c0.27-0.46,0.54-0.91,0.82-1.35v-0.06c1.65,0.17,3.15,0.64,4.52,1.41c0.57,0.32,1.12,0.7,1.64,1.13l-7.05,14.4    c-4.05,11.53-5.88,24.04-5.47,37.51C88.7,203.24,86.48,203.23,84.25,201.33z M148.65,271.2c-2.54,5.69-7.21,7.22-14.01,4.59    l1.02-1.74c0.88,0.04,1.74-0.06,2.57-0.28c1.6-0.44,3.1-1.37,4.48-2.79c0.02-0.04,0.05-0.06,0.08-0.08    c1.88-1.95,3.77-1.98,5.67-0.08C148.53,270.94,148.59,271.07,148.65,271.2z M105.78,247.1l9.56-6.03l1.91-0.22l9.29-1.11    l1.02-0.14l-3.92,2.71c9.02,12.29,11.49,21.12,7.41,26.51l-0.41,0.4l-3.81,3.5l2.42,4.49l0.14,0.28    c-6.87,5.02-11.39,3.57-13.58-4.33c-1.7-7.52-3.57-13.17-5.61-16.94c0.39-1.99,0.5-3.6,0.33-4.84c-0.37-2.34-1.76-3.34-4.17-2.99    L105.78,247.1z M98.04,259.51l8.1-1.99v6.77l-10.92,2.65l-0.17,1.96l9.37-1.38l0.22,12.05l-9.89,1.52l-0.83,11.97l0.83-11.97    l9.89-1.52v13.93c-3.57,1.71-7.15,1.57-10.72-0.44l-0.19,2.6c0.53,0.22,1.07,0.42,1.6,0.61l0.14,2.93    c3.75,0.94,7.27,1.11,10.56,0.5c0.69-0.13,1.37-0.3,2.05-0.5l0.66,5.45c-0.88,0.2-1.78,0.31-2.71,0.33    c-3.16,0.07-6.62-0.87-10.39-2.82l-2.18,1.52c-0.94-5.38-1.55-10.5-1.82-15.37c-0.18-3.02-0.24-5.94-0.17-8.76    c0.09-3.52,0.39-6.89,0.88-10.12c0.61-4.11,1.54-7.98,2.79-11.61c0.15,0.7,0.36,1.45,0.64,2.24L98.04,259.51z M110.5,251.38    l13.13-9.07L110.5,251.38z M88.56,228.61h4.45l10.17,24.16c-1.58,0.53-3.17,0.91-4.75,1.13l-1.19-3.04l-0.19-0.52l-5.03-12.85    l-2.96-7.6L88.56,228.61z M95.22,266.94l0.55-6.88L95.22,266.94z M120.26,298.92c-3-7.7-5.43-15.87-7.27-24.52    c2.99,6.93,7.41,9.95,13.27,9.07C131.69,289.13,129.69,294.28,120.26,298.92z M95.63,302.16l-0.17-2.96L95.63,302.16z" class="st10"/><path data-cppathid="10012" d="M111,115.12c-1.12,0.42-2.26,0.74-3.4,0.94c0.59-2.65,0.74-5.3,0.44-7.93c0.83-1.38,1.71-2.75,2.65-4.09    c0.59-0.87,1.21-1.73,1.85-2.6c3.22,1.81,6.65,1.42,10.28-1.16c3.02-2.54,3.94-8.14,2.76-16.8c4.68-7.98,7.35-15.2,8.02-21.67    c0.99-9.99-2.85-18.16-11.53-24.52c0.53-0.24,1.06-0.44,1.58-0.61c8.77,4.11,13.1,12.08,12.99,23.91    c-0.02,0.2-0.04,0.41-0.06,0.61c-0.57,8.61-3.8,16.55-9.67,23.83c1.68,7.48,0.76,12.91-2.76,16.28c-2.89,2.51-6.5,3.66-10.81,3.45    C112.06,105.64,111.28,109.1,111,115.12z M58.35,68.88c0.13,1.12,0.33,2.27,0.61,3.43c0.37,7.37-0.5,14.74-2.6,22.11    c-0.68,2.58-1.14,5.04-1.38,7.38c-5.79-15.9-4.94-29.44,2.54-40.6c0.46-0.7,0.95-1.38,1.46-2.05c-0.2,0.66-0.36,1.34-0.47,2.05    C58.05,63.65,58,66.21,58.35,68.88z" class="st11"/><path data-cppathid="10013" d="M120.7,111.78c-4.35,6.34-9.88,10.61-16.58,12.82c1.68-2.86,2.84-5.7,3.48-8.54c1.14-0.2,2.28-0.52,3.4-0.94    c2.67-1.05,5.25-2.82,7.74-5.31c1.64-1.62,3.23-3.56,4.78-5.8c-0.53,2.03-1.21,4.02-2.02,5.97    C121.25,110.57,120.98,111.17,120.7,111.78z M145.3,89.03c-1.49,7.55-4.06,14.82-7.71,21.81c-2.34,4.48-5.11,8.84-8.32,13.07    c-6.38,2.12-13.05,3.21-20.01,3.26c1.09-1.05,2.13-2.11,3.12-3.18l14.98-3.84c2.12-3.21,4.04-6.39,5.75-9.56    c5.58-10.28,9.07-20.35,10.48-30.21L145.3,89.03z M130.13,35.38c6.89-0.22,12.49,3.86,16.8,12.24    c8.18,18.65,12.39,37.29,12.63,55.91c-2.73,2.95-5.54,5.62-8.43,8.02c-5.29,4.37-10.85,7.82-16.69,10.36    c0.74-1.14,1.45-2.28,2.13-3.43c3.57-2.25,6.61-4.66,9.09-7.24c6.3-6.56,9.03-14.23,8.18-23.02c-0.04-0.28-0.06-0.56-0.08-0.86    C148.43,57.69,140.56,40.36,130.13,35.38z M122.08,37.29c8.68,6.36,12.52,14.53,11.53,24.52c-0.66,6.47-3.34,13.69-8.02,21.67    c-0.18-1.29-0.41-2.63-0.66-4.04c-0.64-1.68-1.42-2.73-2.32-3.15c3.39-4.13,5.22-8.96,5.5-14.51c0.06-1.31,0.03-2.64-0.08-4.01    c-2.4-12.79-13.41-23.25-33.06-31.4c4.22,0.65,8.83,1.95,13.82,3.92C114.06,32.3,118.49,34.63,122.08,37.29z M73.66,30.68    c-2.28,1.73-4.3,3.94-6.05,6.63l1.74-6.52C70.71,30.63,72.15,30.59,73.66,30.68z M53.98,42.43c0.76-1.6,1.6-3.04,2.54-4.31    l7.32,0.86C60.14,39.88,56.85,41.03,53.98,42.43z M75.4,80.71c-3.3-6.56-4.74-13.03-4.34-19.4c0.29-4.9,1.69-9.75,4.17-14.54    l3.59-5c-1.33,5.79-2.14,11.42-2.43,16.89c-0.06,0.9-0.09,1.8-0.11,2.68c-0.2,8.02,0.73,15.69,2.79,23.02    C77.75,83.18,76.52,81.96,75.4,80.71z M65.01,52.32c-2.25,2.23-4.26,4.51-6.03,6.83c-0.52,0.66-1,1.34-1.46,2.05    c-7.48,11.17-8.33,24.7-2.54,40.6c-0.17,1.49-0.25,2.94-0.25,4.34c-1.88-2.34-3.6-4.75-5.17-7.24l-1.38-11.83    c-1.62-9.88-0.53-18.52,3.26-25.93c0.74-1.46,1.58-2.86,2.54-4.2L66.2,41.77C65.46,45.43,65.06,48.95,65.01,52.32z M104.06,79.88    c-2.28-0.52-4.51-1.25-6.66-2.21l10.01-1.02c0.88-5.05,0.53-10.07-1.05-15.06c-2.23-7.04-6.88-14.03-13.96-20.98    c10.24,5.69,16.84,12.7,19.79,21.03c2.03,5.77,2.29,12.17,0.8,19.21C109.91,80.87,106.94,80.54,104.06,79.88z M96.38,177.39    c-0.09,0.52-0.18,1.05-0.28,1.6c-0.18,0.96-0.35,1.93-0.5,2.93c-0.52,3.45-0.9,7.09-1.16,10.95c-0.15,2.1-0.25,4.27-0.3,6.5    c-0.06,1.64-0.09,3.32-0.11,5.03c-3.48,2.03-6.76,2.03-9.84,0c0-1.03,0.02-2.05,0.06-3.07c2.23,1.9,4.46,1.91,6.69,0.03    c-0.41-13.47,1.42-25.97,5.47-37.51l7.05-14.4c0.93,0.76,1.79,1.69,2.57,2.81c0.04,0.05,0.07,0.1,0.11,0.15    c-0.04,0.05-0.07,0.1-0.11,0.15C101.57,158.81,98.35,167.08,96.38,177.39z M115.95,234.72l-4.84-16.31    c3.26,0.28,6.51,0.46,9.76,0.55l4.15,15.06l0.77,2.82l-8.82,1.3L115.95,234.72z M137.15,271.75c1.6-1.79,2.57-3.65,2.9-5.58    l2.65,4.81c-1.38,1.42-2.87,2.35-4.48,2.79l-0.83-1.55L137.15,271.75z M110.17,256.22c2.05,3.78,3.92,9.43,5.61,16.94    c2.19,7.9,6.72,9.34,13.58,4.33l0.18,0.32l1.69,3.15l2.68-2.04c2.71,1.38,5.34,1.6,7.91,0.66c-1.03,2.05-2.17,4.04-3.43,5.97    l-3.76-2.05c-2.01,1.58-3.82,1.33-5.44-0.77c-1.01,0.35-1.99,0.6-2.93,0.75c-5.86,0.88-10.28-2.14-13.27-9.07    c-1.23-5.71-2.21-11.62-2.93-17.72C110.1,256.52,110.13,256.37,110.17,256.22z M112.99,274.41c1.84,8.64,4.27,16.81,7.27,24.52    c0.55,1.44,1.12,2.86,1.71,4.26c-2.97,1.42-5.96,2.41-8.98,2.99c-1.16,0.2-2.32,0.35-3.48,0.44c-1.16,0.08-2.32,0.11-3.48,0.07    c-4.15-0.16-8.34-1.12-12.58-2.89c0-0.04,0-0.07,0-0.11l2.18-1.52c3.77,1.95,7.24,2.89,10.39,2.82c0.93-0.02,1.83-0.13,2.71-0.33    c1.11-0.24,2.16-0.62,3.18-1.13c1.2-0.61,2.34-1.41,3.43-2.4l-5.28-22.36l-5.42,0.83l-0.22-12.05l5.64-0.83v-10.01    C110.78,262.79,111.76,268.69,112.99,274.41z M105.31,188.03l4.12,4.06l3.37-2.43l3.92,14.26c-0.74,0.39-1.49,0.81-2.27,1.27    c-2.17,1.27-4.34,2.14-6.5,2.6l-6.27-21.03l0.5-1.82L105.31,188.03z M98.04,259.51c-1.53-3.15-1.4-5.02,0.39-5.61    c1.58-0.22,3.17-0.6,4.75-1.13l-10.17-24.16h-4.45l-1.35-3.43c3.57,0.17,6.5-0.2,8.76-1.11l1.71,4.01l3.21,7.52l4.34,10.2    l0.55,1.3l0.55,1.3l1.08,2.54c1.47,0.66,1.77,2.68,0.88,6.05l-2.16,0.53L98.04,259.51z M134.63,275.79l-1.3-2.46l-2.54,2.32    l-1.6-2.35l4.12-3.23l2.35,3.98L134.63,275.79z M103.18,252.76c0.94-0.32,1.89-0.71,2.85-1.15c0.46-0.21,0.92-0.44,1.38-0.68    c-0.46,0.24-0.92,0.47-1.38,0.68C105.07,252.06,104.12,252.44,103.18,252.76z M111.91,303.51l-2.16-17.41l0.3-7.35l5.28,22.36    C114.25,302.1,113.11,302.9,111.91,303.51z" class="st12"/><path data-cppathid="10014" d="M65.01,52.32c-0.06,3.1,0.18,6.07,0.72,8.93c1.33,7.32,4.55,13.8,9.67,19.46c1.12,1.25,2.35,2.47,3.68,3.65    c-2.06-7.33-2.99-15.01-2.79-23.02c0.02-0.88,0.06-1.78,0.11-2.68c0.61,0.92,1.23,1.82,1.88,2.71    c5.66,7.74,12.03,13.17,19.13,16.31c2.16,0.96,4.38,1.7,6.66,2.21c1.33,5.4,3.6,8.69,6.83,9.87c-4.74,1.64-8.42-0.63-11.06-6.8    c-6.76-1.23-12.82-4.15-18.19-8.73l0.14,14.81c-8.96-5.95-15.3-14.45-19.04-25.48l-4.39,5.33c-0.35-2.67-0.3-5.23,0.17-7.68    c0.11-0.7,0.27-1.38,0.47-2.05C60.75,56.83,62.76,54.55,65.01,52.32z M76.06,159.87c-0.42-2.76-0.58-6.2-0.47-10.31    c0.65,8.26,2.27,13.09,4.86,14.51c1.84,1.01,4.18,0.29,7.02-2.18c1.36-5.26,3.1-9.79,5.21-13.57c0.31-0.56,0.63-1.1,0.95-1.63    c0.01-0.06,0.02-0.13,0.03-0.19c0.56-4.03,1.24-7.9,2.02-11.61c3.12-14.88,7.97-27.26,14.54-37.12c6.38,2.98,10.37,1.7,12-3.87    c2.1-8.97,1.57-14.85-1.6-17.63c0.72-0.28,1.38-0.27,1.99,0.03c0.9,0.42,1.68,1.47,2.32,3.15c0.26,1.4,0.48,2.75,0.66,4.04    c1.18,8.66,0.26,14.26-2.76,16.8c-3.63,2.58-7.06,2.97-10.28,1.16c-0.64,0.87-1.26,1.73-1.85,2.6c-0.94,1.35-1.82,2.71-2.65,4.09    c-5.33,8.7-8.69,17.62-10.07,26.75c-0.58,3.83-0.81,7.7-0.69,11.61c0,0.14,0.01,0.28,0.01,0.41v0.06    c-0.27,0.45-0.55,0.9-0.82,1.35c-2.71,4.67-4.97,9.9-6.79,15.67c-4.29,3.8-7.6,5.04-9.92,3.73    C77.93,166.67,76.69,164.05,76.06,159.87z M84,134.27l1.22-4.84c2.47-1.14,4.71-2.87,6.72-5.17    C90.86,128.89,88.22,132.23,84,134.27z M112.55,101.44c-0.55-0.33-1.11-0.72-1.66-1.16C111.44,100.72,112,101.11,112.55,101.44z     M111.14,186.71c1.31-3.76,2.76-6.96,4.37-9.59c1.36-2.23,2.83-4.05,4.39-5.47l3.18,3.9l17.72,21.56    c9.53,10.98,7.12,18.2-7.21,21.64c-4.2,0.26-8.44,0.33-12.71,0.22c-3.24-0.09-6.5-0.28-9.76-0.55c-1.69-0.16-3.38-0.34-5.09-0.55    c-1.45-0.17-2.91-0.37-4.37-0.58c-0.42,2.08-1.34,3.76-2.74,5.03c-0.83,0.72-1.81,1.31-2.96,1.77c-2.27,0.9-5.19,1.27-8.76,1.11    c-0.55-0.02-1.12-0.06-1.71-0.11c-1.66,0.13-2.63-0.95-2.9-3.23c0.53,0.46,1.21,0.85,2.02,1.16c8.72,0.13,13.9-2.75,15.56-8.65    h23.94c0.26,0,0.51,0.01,0.75,0.03c12.64,0.31,18.29-2.46,16.94-8.32l-21.28-27.89c-3.34,2.98-5.72,6.68-7.16,11.08L111.14,186.71    z M92.29,378.39c-1.01,12.59,0.3,26.53,3.95,41.85l-0.64,23.13l-0.66-0.28l-2.43-0.94c0.07-0.57,0.14-1.14,0.19-1.71    c-3.63-5.2-7.41-7.36-11.33-6.5c-0.28-1.36-0.54-2.72-0.8-4.06c5.03-1.7,8.73-0.18,11.11,4.53c-3.04-18.63-4.97-36.9-5.78-54.81    c-1.57-3.34-2.78-7.79-3.65-13.38c-5.33-23.07-8.95-47-10.86-71.78c-4.79-0.06-9.57-0.73-14.34-2.02    c-0.13-1.73-0.24-3.47-0.33-5.22c4.02,1.44,8.03,2.05,12.05,1.85c2.05-0.13,4.09-0.46,6.14-0.99c0.77,0.24,1.55,0.45,2.32,0.64    c3.34,0.79,6.67,0.97,10.01,0.53c1.46-0.18,2.92-0.49,4.39-0.91c0.28,4.86,0.88,9.99,1.82,15.37c0,0.04,0,0.07,0,0.11    c4.23,1.77,8.42,2.73,12.58,2.89c1.16,0.04,2.32,0.02,3.48-0.07c-0.86,16.98-2.02,33.22-3.48,48.73    c-0.73,7.78-1.55,15.39-2.43,22.8c0.87,2.46,1.68,5.02,2.43,7.67c3.32,11.69,5.57,25.25,6.74,40.67c0.18,2.43,0.34,4.91,0.47,7.44    c-2.23,1.05-4.4,3.1-6.52,6.14c0.06,0.61,0.12,1.21,0.19,1.8l-3.79,1.46c-0.39-1.09-0.76-2.16-1.11-3.21    c0.3-3.39,1.64-5.72,4.01-6.98c0.66-0.36,1.39-0.63,2.21-0.82c-0.32-7.94-1.06-15.75-2.21-23.44c-1.6-10.68-3.99-21.13-7.19-31.34    c1.88-23.24,2.47-44.29,1.77-63.16c-4.88-0.83-8.11-3.46-9.67-7.9L89.05,295l-11.28-2.29l-0.55-4.01l0.55,4.01l10.48,76.62    C89.3,373.23,90.65,376.25,92.29,378.39z M37.95,194.89c0.83,0.37,1.65,0.82,2.46,1.35l8.32-8.07c-3.74-3.46-5.69-6.94-5.86-10.42    l2.38-2.35c0.22,1.77,0.67,3.42,1.35,4.95c1.33,3,3.54,5.53,6.63,7.57l-10.12,10.53c-0.88-0.85-1.79-1.58-2.71-2.21    c0.92,0.63,1.82,1.36,2.71,2.21c3.85,3.7,7.38,9.63,10.59,17.77c2.51,5.51,5.14,9.6,7.9,12.27c-0.55,3.13-1.46,6.08-2.74,8.84    c-1.14,2.43-2.57,4.72-4.28,6.85c1.09,0.94,2.17,1.78,3.26,2.52c-0.22,0.77-0.43,1.55-0.64,2.32c-7.65-0.41-11.88-2.91-12.69-7.52    c0.83,2.01,3.55,3.81,8.15,5.42v-2.43c4.29-4.7,6.15-9.66,5.56-14.87c-3.94-4.5-7.38-10.58-10.31-18.24    C46.25,206.6,42.92,201.1,37.95,194.89z M47.51,237.51c0.5-2.69,1.9-3.1,4.2-1.24c-0.09,1.38,0.17,2.77,0.8,4.17l-1.02,2.05    C49.93,239.9,48.6,238.25,47.51,237.51z M123.96,201.38l-1.49-1.71c7.48-3.04,12.12-0.71,13.9,6.99    C133.24,202.3,129.1,200.54,123.96,201.38z" class="st13"/><path data-cppathid="10015" d="M120.62,76.26c3.17,2.78,3.7,8.66,1.6,17.63c-1.62,5.56-5.62,6.85-12,3.87    c-6.57,9.86-11.42,22.24-14.54,37.12c-0.78,3.71-1.45,7.58-2.02,11.61c-0.01,0.06-0.02,0.13-0.03,0.19    c-0.33,0.53-0.65,1.07-0.95,1.63c-2.11,3.78-3.85,8.31-5.21,13.57c-2.84,2.47-5.18,3.2-7.02,2.18c-2.6-1.42-4.22-6.26-4.86-14.51    c0-0.02,0-0.04,0-0.06l5.29-3.01l0.04-0.03L84,134.27c4.22-2.05,6.86-5.38,7.93-10.01c-2.01,2.3-4.25,4.03-6.72,5.17    c-3.78,1.71-8.09,2.05-12.94,1.02c-11.63-4.81-17.48-12.92-17.55-24.32c0-1.4,0.08-2.85,0.25-4.34c0.24-2.34,0.7-4.8,1.38-7.38    c2.1-7.37,2.97-14.74,2.6-22.11c-0.28-1.16-0.48-2.3-0.61-3.43l4.39-5.33c3.74,11.04,10.09,19.53,19.04,25.48l-0.14-14.81    c5.36,4.59,11.42,7.5,18.19,8.73c2.63,6.17,6.32,8.44,11.06,6.8C114.83,81.73,118.08,77.24,120.62,76.26z M82.12,221.39    c-1.14-1.22-1.56-2.85-1.24-4.89c-0.61-0.76-0.98-1.62-1.11-2.6c-0.17-1.23,0.05-2.65,0.64-4.26c0.48,0.88,1.19,1.66,2.13,2.32    c-0.94-0.66-1.65-1.44-2.13-2.32c-0.83-1.57-1-3.49-0.53-5.78c0.96-2.47,2.43-3.92,4.42-4.34c-0.04,0.59-0.06,1.19-0.06,1.8    c-0.04,1.01-0.06,2.04-0.06,3.07c3.08,2.03,6.36,2.03,9.84,0c0.02-1.71,0.06-3.39,0.11-5.03c1.38-0.33,2.63,0.06,3.73,1.16    c1.38,1.36,2.54,3.85,3.48,7.46c1.55,0.25,3.11,0.29,4.67,0.12c0.64-0.07,1.29-0.18,1.93-0.32c2.16-0.46,4.32-1.33,6.5-2.6    c0.77-0.46,1.53-0.88,2.27-1.27c2.6-1.34,5.01-2.19,7.24-2.54c5.14-0.85,9.28,0.91,12.41,5.28c-1.79-7.7-6.42-10.03-13.9-6.99    l-9.12-10.42c1.44-4.4,3.82-8.1,7.16-11.08l21.28,27.89c1.35,5.86-4.3,8.63-16.94,8.32c-0.24-0.02-0.49-0.03-0.75-0.03h-23.94    c-1.66,5.9-6.85,8.78-15.56,8.65c-0.81-0.31-1.48-0.7-2.02-1.16C82.4,221.69,82.25,221.54,82.12,221.39z M96.24,420.23    c-3.65-15.31-4.97-29.26-3.95-41.85c1.58,2.08,3.45,3.33,5.61,3.73c-2.16-0.41-4.03-1.65-5.61-3.73    c-1.64-2.14-2.99-5.16-4.04-9.07L77.78,292.7L89.05,295l1.88,11.47c1.57,4.44,4.79,7.08,9.67,7.9c0.7,18.87,0.11,39.92-1.77,63.16    c3.19,10.21,5.59,20.66,7.19,31.34c1.15,7.69,1.89,15.5,2.21,23.44c-0.82,0.19-1.55,0.46-2.21,0.82c-2.37,1.26-3.7,3.59-4.01,6.98    c-0.83-2.45-1.61-4.87-2.35-7.27c-0.66-2.16-1.27-4.27-1.82-6.36C97.25,424.38,96.72,422.3,96.24,420.23z M74.32,375.04    c1.44,2.93,2.97,5.63,4.59,8.1C77.29,380.67,75.76,377.97,74.32,375.04z M57.05,292.43c4.77,1.29,9.55,1.96,14.34,2.02    c1.92,24.78,5.54,48.71,10.86,71.78c0.87,5.58,2.08,10.04,3.65,13.38c0.81,17.91,2.74,36.18,5.78,54.81    c-2.38-4.72-6.08-6.23-11.11-4.53c-3.92-19.73-6.01-38.01-6.25-54.84C65.17,356.54,59.41,329,57.05,292.43z M51.71,236.26    c0.13-1.77,0.84-3.54,2.13-5.31L35.46,213.3c-9.8-9.66-11.03-17.85-3.68-24.57l11.08-10.97c0.17,3.48,2.12,6.96,5.86,10.42    l-8.32,8.07c-0.81-0.53-1.63-0.99-2.46-1.35c4.98,6.21,8.3,11.71,9.98,16.5c2.93,7.67,6.37,13.75,10.31,18.24    c0.59,5.21-1.26,10.17-5.56,14.87v2.43c-4.61-1.6-7.32-3.41-8.15-5.42c-0.13-0.77-0.17-1.6-0.11-2.49    c0.68-1.93,1.71-2.44,3.1-1.52c1.09,0.74,2.41,2.4,3.98,4.98l1.02-2.05c0.2,0.46,0.45,0.92,0.75,1.38    c-0.29-0.46-0.54-0.92-0.75-1.38C51.89,239.04,51.62,237.65,51.71,236.26z M80.87,216.5c0.48,0.63,1.13,1.17,1.96,1.63    C82.01,217.67,81.35,217.13,80.87,216.5z M51.49,242.48l-0.58,1.11L51.49,242.48z" class="st14"/><path data-cppathid="10016" d="M104.37,167.88c-2.65-1.22-5.32,1.95-7.99,9.51c1.97-10.31,5.19-18.59,9.65-24.83    c0.04-0.05,0.07-0.1,0.11-0.15c2.21,1.01,4.37,2.24,6.47,3.68c-2.46,2.06-4.65,4.87-6.58,8.42c-0.57,1.05-1.11,2.16-1.63,3.33    C104.38,167.85,104.37,167.87,104.37,167.88z M95.61,181.93l3.23-0.28l0.88,0.88l2.46,2.4l-0.5,1.82l-1.49,5.33l-5.75,0.77    C94.7,189.02,95.09,185.37,95.61,181.93z M79.22,171.09c0.17-1.12,0.35-2.25,0.55-3.37c2.32,1.31,5.63,0.06,9.92-3.73    c-0.68,2.21-1.31,4.5-1.88,6.85C84.84,171.28,81.98,171.37,79.22,171.09z M78.08,181.46c2.54,0.29,5.1,0.43,7.68,0.41    c-0.55,3.83-0.96,7.84-1.22,12.02c-2.27,0.18-4.51,0.2-6.72,0.06C77.7,189.8,77.79,185.64,78.08,181.46z M110.14,172.64    c2.16-4.48,4.92-8.44,8.29-11.88c2.43,2.25,4.77,4.82,7.02,7.71c-1.97,0.55-3.82,1.61-5.56,3.18c-1.57,1.42-3.03,3.24-4.39,5.47    L110.14,172.64z M120.01,464.57l-2.63-1.91l4.64-1.88l2.21,1.35L120.01,464.57z M128.47,464.76l-4.34,2.79l-0.77-0.55l4.28-2.76    L128.47,464.76z M131.81,473.16l5-3.26l3.7,2.29c-2.49,0.13-4.87,0.83-7.16,2.1L131.81,473.16z M92.98,458.76    c-1.25,0.65-2.19,1.51-2.82,2.6l4.78-18.27l0.66,0.28l3.1,1.19L92.98,458.76z M59.29,160.78l2.65-3.51L72,151.55L68.21,156    l-3.79,4.48c-0.96,0.96-1.83,1.97-2.63,3.04c-0.26,0.35-0.51,0.71-0.75,1.08c-0.98-1.2-1.57-2.46-1.77-3.79V160.78z M53.23,187.92    c-3.1-2.05-5.31-4.57-6.63-7.57l5-8.07c1,2.51,2.53,4.39,4.62,5.67c-0.35,2.63-0.43,5.45-0.25,8.43c0.06,1.07,0.15,2.16,0.28,3.26    C55.16,189.1,54.16,188.53,53.23,187.92z M77.25,214.01c-0.81-3.34-0.94-6.62-0.39-9.87c0.99-0.04,2-0.13,3.01-0.28    c-0.48,2.28-0.3,4.21,0.53,5.78c-0.59,1.6-0.8,3.02-0.64,4.26C78.92,213.98,78.08,214.01,77.25,214.01z M79.52,221.48    c0.87,0,1.73-0.03,2.6-0.08c0.13,0.15,0.29,0.29,0.47,0.44c0.28,2.28,1.24,3.36,2.9,3.23c0.59,0.06,1.16,0.09,1.71,0.11l1.35,3.43    l0.5,1.27c-1.64,0.2-3.27,0.35-4.89,0.44c-0.55,0.02-1.11,0.04-1.66,0.06C81.03,228.46,80.04,225.49,79.52,221.48z M67.36,230.43    c0.96-2.84,1.87-5.79,2.74-8.84c0.5,0.02,0.99,0.01,1.49-0.03c-0.18,2.63-0.48,5.24-0.88,7.82c-0.09,0.46-0.18,0.92-0.25,1.38    C69.42,230.73,68.39,230.62,67.36,230.43z M97.68,228.08l-1.71-4.01c1.14-0.46,2.13-1.05,2.96-1.77c0.57,1.64,1.21,3.24,1.91,4.81    L97.68,228.08z M105.22,245.8l-4.34-10.2l3.51-1.6c0.52,0.88,1.07,1.74,1.63,2.6c1.19,1.8,2.48,3.55,3.87,5.25L105.22,245.8z     M85.05,238.61c2.32-0.24,4.64-0.62,6.97-1.13l5.03,12.85c-3.24,1.16-5.92,1.67-8.04,1.52c7.04-3.37,6.77-4.78-0.8-4.23    c-0.68,0.04-1.42,0.1-2.21,0.19L85.05,238.61z M64.59,249.81c-1.62-0.42-3.23-1.07-4.84-1.93c1.29-2.36,2.52-4.84,3.68-7.44    c1.35,0.55,2.8,0.88,4.37,0.97C66.88,244.24,65.81,247.04,64.59,249.81z M106.91,441.85c1.01,8.05,3.69,15.31,8.04,21.78l-5-3.01    l-6.83-17.3L106.91,441.85z M75.76,481.7c-0.7-1.01-1.41-1.94-2.13-2.79l15.56-13.63c0,0.9,0.11,1.9,0.33,2.99    C85.75,472.89,81.16,477.37,75.76,481.7z" class="st15"/><path data-cppathid="10017" d="M75.59,149.56c-0.11,4.11,0.05,7.55,0.47,10.31c-2.93-0.39-5.55-1.68-7.85-3.87l3.79-4.45l3.57-2.02    l0.03-0.03C75.59,149.52,75.59,149.54,75.59,149.56z M102.18,184.94l-2.46-2.4c1.27-5.68,2.82-10.56,4.64-14.65    c0-0.02,0.01-0.04,0.03-0.06l5.75,4.81c-1.76,3.6-3.14,7.54-4.12,11.8c-0.27,1.17-0.51,2.37-0.72,3.59L102.18,184.94z     M106.41,459.12c3.41,1.79,4.61,5.09,3.59,9.89c-1.29-1.58-2.49-3.18-3.59-4.78V459.12z M55.33,473.66    c6.3-1.57,11.26,1.49,14.87,9.18c-2.87,4.81-9.97,6.56-21.28,5.25C48.41,481.62,50.54,476.81,55.33,473.66z M65.95,467.77    l8.21,4.78l-2.13,1.96l-8.26-5.39L65.95,467.77z M68.52,466.2l1.82-1.11l7.1,4.39l-1.74,1.63L68.52,466.2z M79.13,467.91    l-6.55-4.23l2.4-1.47l5.94,4.01L79.13,467.91z M51.6,172.28c-0.92-2.27-1.39-5.04-1.41-8.32l9.04-5.14    c-0.07,0.66-0.06,1.32,0.06,1.96l-3.21,4.23L51.6,172.28z M61.8,163.52c5.27,4.42,11.07,6.95,17.41,7.57    c-0.53,3.46-0.91,6.92-1.13,10.36c-7.2-0.83-14.34-2.92-21.42-6.27c0.83-3.96,2.29-7.49,4.39-10.59    C61.3,164.23,61.54,163.87,61.8,163.52z M58.1,199.42c-0.87-3.43-1.48-6.69-1.85-9.78c-0.13-1.11-0.22-2.19-0.28-3.26    c6.98,4.53,14.27,7.06,21.86,7.57c0.06,1.84,0.15,3.69,0.28,5.53c-0.57,1.55-0.99,3.1-1.24,4.67    C70.44,204.44,64.18,202.87,58.1,199.42z M61.03,210.23c5.4,2.54,10.81,3.8,16.22,3.79c0.37,1.51,0.88,3.03,1.52,4.56l0.55,1.02    c0.06,0.64,0.12,1.27,0.19,1.88c-2.62-0.06-5.23-0.47-7.85-1.24c0.09-1.71,0.13-3.44,0.11-5.17c-0.53,2.23-1.1,4.4-1.69,6.52    c-2.76-0.11-5.42-0.91-7.96-2.4C62.01,216.33,61.64,213.34,61.03,210.23z M85.05,238.61c-5.42,0.53-10.82,0.29-16.2-0.72    c0.64-2.36,1.18-4.74,1.6-7.13c0.07-0.46,0.16-0.92,0.25-1.38c3.87,0.74,7.8,1.07,11.8,1c0.55-0.02,1.11-0.04,1.66-0.06    L85.05,238.61z M61.61,228.5c1.9,0.92,3.81,1.57,5.75,1.93c-1.23,3.52-2.54,6.85-3.92,10.01c-1.71-0.68-3.23-1.71-4.56-3.1    C60.14,234.58,61.06,231.63,61.61,228.5z M139.91,493.31c-6.76-0.7-11.96-4.15-15.59-10.34c2.8-4.02,5.81-6.91,9.04-8.68    C144.88,480.01,147.06,486.35,139.91,493.31z M120.01,464.57l1.52,1.11l-4.26,3.21c-0.68-0.63-1.03-1.35-1.05-2.16L120.01,464.57z     M124.13,467.55l1.05,0.77l-5.25,3.87c-0.31-0.46-0.48-1-0.5-1.63L124.13,467.55z M123.44,476.04c-0.48-0.53-0.75-1.16-0.8-1.88    l5.56-3.62l1.69,1.22L123.44,476.04z" class="st2"/><path data-cppathid="10018" d="M94.44,192.87l5.75-0.77l-2.32,8.43c-1.11-1.11-2.35-1.49-3.73-1.16C94.2,197.14,94.3,194.97,94.44,192.87z     M96.1,179l2.74,2.65l-3.23,0.28C95.75,180.93,95.92,179.95,96.1,179z M79.22,171.09c2.76,0.28,5.63,0.19,8.6-0.25    c-0.83,3.5-1.51,7.18-2.05,11.03c-2.58,0.02-5.14-0.12-7.68-0.41C78.3,178.01,78.68,174.55,79.22,171.09z M84.3,199.53    c-1.99,0.42-3.46,1.87-4.42,4.34c-1.01,0.15-2.02,0.24-3.01,0.28c0.26-1.57,0.67-3.12,1.24-4.67c-0.13-1.84-0.22-3.69-0.28-5.53    c2.21,0.15,4.45,0.13,6.72-0.06C84.44,195.74,84.36,197.62,84.3,199.53z M118.44,160.75c-3.37,3.45-6.14,7.41-8.29,11.88    l-5.75-4.81c0.52-1.17,1.06-2.28,1.63-3.33c1.92-3.55,4.12-6.35,6.58-8.42C114.59,157.45,116.54,159,118.44,160.75z     M120.01,464.57l4.23-2.43l3.4,2.1l-4.28,2.76l-4.51,2.93c-0.64-0.31-1.17-0.66-1.58-1.05l4.26-3.21L120.01,464.57z     M131.87,466.86l-9.78,6.69c-0.99-0.24-1.71-0.69-2.16-1.35l5.25-3.87l-1.05-0.77l4.34-2.79L131.87,466.86z M128.19,470.54    l4.67-3.07l3.95,2.43l-5,3.26l-6.36,4.15c-0.88-0.33-1.56-0.76-2.02-1.27l6.44-4.28L128.19,470.54z M139.91,493.31    c7.15-6.96,4.97-13.3-6.55-19.02c2.29-1.27,4.67-1.97,7.16-2.1c9.29,3.19,13.1,9.82,11.44,19.9    C147.5,493.26,143.49,493.66,139.91,493.31z M89.19,465.28c0-1.53,0.32-2.84,0.97-3.92c0.63-1.09,1.57-1.95,2.82-2.6v4.92    c-1.05,1.55-2.2,3.08-3.45,4.59C89.3,467.18,89.19,466.19,89.19,465.28z M48.92,488.09c11.31,1.31,18.41-0.44,21.28-5.25    c-3.61-7.68-8.57-10.74-14.87-9.18c1.4-0.92,3.02-1.7,4.86-2.32c4.88,0.24,9.36,2.76,13.43,7.57c0.72,0.85,1.43,1.78,2.13,2.79    c-5.33,9.08-14.18,12-26.56,8.76C49.07,489.65,48.98,488.86,48.92,488.09z M72.03,474.52l2.13-1.96l-8.21-4.78l1.6-0.99l9.84,6.44    c-0.11,1.38-1.01,2.4-2.71,3.04L72.03,474.52z M79.13,467.91l1.8-1.69l-5.94-4.01l0.86-0.55l7.71,4.39    c-0.04,1.27-0.88,2.3-2.52,3.1L79.13,467.91z M71.78,464.18l8.68,5.58c-0.06,1.51-0.9,2.47-2.54,2.87l-2.21-1.52l1.74-1.63    l-7.1-4.39L71.78,464.18z M59.29,160.78v0.03c0.2,1.33,0.79,2.59,1.77,3.79c-2.1,3.1-3.57,6.62-4.39,10.59    c-0.18,0.88-0.33,1.81-0.44,2.76c-2.08-1.27-3.62-3.16-4.62-5.67l4.48-7.27L59.29,160.78z M71.67,220.23    c-0.02,0.44-0.05,0.88-0.08,1.33c-0.5,0.04-0.99,0.05-1.49,0.03c0.59-2.12,1.15-4.29,1.69-6.52    C71.8,216.8,71.76,218.52,71.67,220.23z M82.12,221.39c-0.87,0.06-1.73,0.08-2.6,0.08c-0.07-0.61-0.14-1.23-0.19-1.88l-0.55-1.02    c-0.64-1.53-1.15-3.05-1.52-4.56c0.83,0,1.67-0.04,2.52-0.11c0.13,0.98,0.5,1.84,1.11,2.6C80.56,218.55,80.97,220.18,82.12,221.39    z M104.39,234l-3.51,1.6l-3.21-7.52l3.15-0.97C101.86,229.47,103.05,231.77,104.39,234z M92.01,237.48    c-2.32,0.52-4.64,0.89-6.97,1.13l-0.88-8.29c1.62-0.09,3.25-0.24,4.89-0.44L92.01,237.48z M68.85,237.89    c-0.33,1.16-0.68,2.33-1.05,3.51c-1.57-0.09-3.02-0.41-4.37-0.97c1.38-3.15,2.69-6.49,3.92-10.01c1.03,0.18,2.06,0.29,3.1,0.33    C70.03,233.16,69.5,235.54,68.85,237.89z" class="st16"/><path data-cppathid="10019" d="M98.84,181.65L96.1,179c0.09-0.55,0.18-1.09,0.28-1.6c2.67-7.55,5.33-10.72,7.99-9.51    c-1.82,4.09-3.37,8.97-4.64,14.65L98.84,181.65z M132.86,467.47l-4.67,3.07l-5.56,3.62c0.06,0.72,0.32,1.35,0.8,1.88    c0.46,0.52,1.13,0.94,2.02,1.27l6.36-4.15l1.55,1.13c-3.22,1.77-6.24,4.66-9.04,8.68c-5.62-4.5-10.39-9.15-14.32-13.96    c1.01-4.81-0.18-8.11-3.59-9.89l-5.94-14.79l2.65-1.02l6.83,17.3l5,3.01l2.43-0.97l2.63,1.91l-3.79,2.16    c0.02,0.81,0.37,1.53,1.05,2.16c0.41,0.39,0.93,0.74,1.58,1.05l4.51-2.93l0.77,0.55l-4.7,3.01c0.02,0.63,0.18,1.17,0.5,1.63    c0.44,0.66,1.16,1.11,2.16,1.35l9.78-6.69L132.86,467.47z M71.78,464.18l0.8-0.5l6.55,4.23l1.91,1.24    c1.64-0.79,2.48-1.82,2.52-3.1l-7.71-4.39l2.13-1.3l6.8,2.74c4.18-6.23,6.76-13.21,7.74-20.95l2.43,0.94l-4.78,18.27    c-0.64,1.09-0.97,2.4-0.97,3.92l-15.56,13.63c-4.07-4.81-8.55-7.33-13.43-7.57l3.57-2.21l8.26,5.39l2.65,1.74    c1.7-0.65,2.6-1.66,2.71-3.04l-9.84-6.44l0.97-0.58l7.19,4.92l2.21,1.52c1.64-0.41,2.49-1.36,2.54-2.87L71.78,464.18z     M50.19,163.96c0.02,3.28,0.49,6.05,1.41,8.32l-5,8.07c-0.68-1.53-1.13-3.18-1.35-4.95c-0.35-2.69-0.18-5.67,0.5-8.93    L50.19,163.96z M61.94,157.27l-2.65,3.51c-0.11-0.65-0.13-1.3-0.06-1.96L61.94,157.27z M79.22,171.09    c-6.34-0.63-12.14-3.15-17.41-7.57c0.79-1.07,1.67-2.08,2.63-3.04l3.79-4.48c2.3,2.19,4.92,3.48,7.85,3.87    c0.63,4.18,1.86,6.8,3.7,7.85C79.57,168.84,79.38,169.97,79.22,171.09z M77.83,193.95c-7.59-0.52-14.88-3.04-21.86-7.57    c-0.18-2.98-0.1-5.8,0.25-8.43c0.11-0.96,0.26-1.88,0.44-2.76c7.08,3.35,14.22,5.45,21.42,6.27    C77.79,185.64,77.7,189.8,77.83,193.95z M67.36,230.43c-1.93-0.37-3.85-1.01-5.75-1.93c0.5-2.95,0.67-6.05,0.53-9.31    c2.54,1.49,5.2,2.29,7.96,2.4C69.23,224.65,68.32,227.59,67.36,230.43z M79.52,221.48c0.52,4.02,1.51,6.98,2.99,8.9    c-4,0.07-7.93-0.26-11.8-1c0.41-2.58,0.7-5.19,0.88-7.82c0.04-0.44,0.06-0.88,0.08-1.33C74.29,221.01,76.9,221.42,79.52,221.48z     M58.1,199.42c6.08,3.45,12.34,5.02,18.77,4.73c-0.55,3.24-0.42,6.53,0.39,9.87c-5.42,0.02-10.83-1.24-16.22-3.79    c-0.26-1.22-0.54-2.45-0.86-3.7C59.36,204.07,58.67,201.71,58.1,199.42z M109.42,192.1l-4.12-4.06c0.21-1.22,0.45-2.42,0.72-3.59    c0.98-4.27,2.35-8.2,4.12-11.8l5.36,4.48c-1.6,2.63-3.06,5.83-4.37,9.59C110.53,188.38,109.96,190.18,109.42,192.1z M85.05,238.61    l0.94,9.2c-0.22,0.02-0.44,0.04-0.66,0.06l-15.84,2.63l-5.64,0.91c0.26-0.53,0.51-1.07,0.75-1.6c1.22-2.76,2.28-5.56,3.21-8.4    c0.37-1.18,0.72-2.35,1.05-3.51C74.23,238.91,79.63,239.15,85.05,238.61z M57.85,246.71c-1.09-0.74-2.17-1.58-3.26-2.52    c1.71-2.14,3.14-4.42,4.28-6.85c1.33,1.38,2.85,2.41,4.56,3.1c-1.16,2.6-2.39,5.08-3.68,7.44    C59.13,247.5,58.49,247.12,57.85,246.71z" class="st17"/><path data-cppathid="10020" d="M119.9,171.64c1.73-1.57,3.58-2.63,5.56-3.18l-2.38,7.08L119.9,171.64z M109.42,192.1    c0.53-1.92,1.11-3.71,1.71-5.39l2.21,2.54l-0.55,0.41L109.42,192.1z M88.2,247.62c7.57-0.55,7.84,0.86,0.8,4.23L88.2,247.62z" class="st18"/><path data-cppathid="10021" d="M131.04,268.82c4.08-5.39,1.61-14.22-7.41-26.51l3.92-2.71c0.5,0.52,0.98,1.03,1.44,1.55    c0.28,0.31,0.55,0.64,0.83,0.97c5.01,5.97,8.43,13.08,10.25,21.34c0.13,0.92,0.12,1.82-0.03,2.71c-0.33,1.93-1.3,3.8-2.9,5.58    l-0.3-0.53l-2.82-5.14l-2.5,2.31L131.04,268.82z M134.63,275.79c6.8,2.63,11.47,1.11,14.01-4.59c0.64,1.49,0.19,2.98-1.35,4.48    c-1.79,1.92-3.61,3.22-5.47,3.9c-2.56,0.94-5.2,0.72-7.91-0.66c-0.5-0.26-0.99-0.55-1.49-0.88l-1.63-2.38l2.54-2.32L134.63,275.79    z M120.26,298.92c9.43-4.64,11.43-9.79,6-15.45c0.94-0.15,1.92-0.4,2.93-0.75c1.62,2.1,3.44,2.36,5.44,0.77l3.76,2.05    c-4.24,6.52-9.71,12.4-16.42,17.63C121.38,301.78,120.81,300.36,120.26,298.92z M108.29,256.99l1.77-0.3v10.01l-5.64,0.83    l-9.37,1.38l0.17-1.96l10.92-2.65v-6.77L108.29,256.99z M93.92,293.06c3.57,2.01,7.15,2.16,10.72,0.44v-13.93l5.42-0.83l-0.3,7.35    l2.16,17.41c-1.01,0.52-2.07,0.89-3.18,1.13l-0.66-5.45c-0.67,0.2-1.35,0.36-2.05,0.5c-3.29,0.61-6.81,0.45-10.56-0.5l-0.14-2.93    c3.64,1.29,7.21,1.62,10.7,1.01c1.1-0.2,2.2-0.49,3.29-0.87l0.44-10.31l-0.44,10.31c-1.09,0.39-2.19,0.68-3.29,0.87    c-3.49,0.62-7.06,0.28-10.7-1.01c-0.53-0.18-1.07-0.39-1.6-0.61L93.92,293.06z" class="st19"/><path data-cppathid="10022" d="M126.53,239.75c0.24-1.25-0.01-2.22-0.75-2.9l-0.77-2.82c3.15,0.31,4.48,2.69,3.98,7.13    c-0.46-0.52-0.94-1.03-1.44-1.55L126.53,239.75z M131.04,268.82l0.48-0.43l-0.9,0.83L131.04,268.82z M129.37,277.49l-0.14-0.28    l0.32,0.59L129.37,277.49z M116.97,238.14c-0.28,0.7-0.18,1.6,0.28,2.71l-1.91,0.22c-0.98-2.82-0.77-4.94,0.61-6.36L116.97,238.14    z M98.04,259.51l-2.27,0.55c-0.28-0.79-0.49-1.54-0.64-2.24c-0.87-3.65-0.17-5.97,2.1-6.97l1.19,3.04    C96.64,254.49,96.51,256.36,98.04,259.51z M106.33,248.4c2.41-0.35,3.81,0.64,4.17,2.99c0.17,1.23,0.06,2.85-0.33,4.84    c-0.04,0.15-0.07,0.3-0.11,0.47l-1.77,0.3c0.88-3.37,0.59-5.39-0.88-6.05L106.33,248.4z" class="st20"/><path data-cppathid="10023" d="M59.76,247.87c1.6,0.87,3.22,1.51,4.84,1.93c-0.24,0.53-0.49,1.07-0.75,1.6l5.64-0.91l15.84-2.63    c0.22-0.02,0.44-0.04,0.66-0.06c0.79-0.09,1.53-0.16,2.21-0.19l0.8,4.23c2.12,0.15,4.8-0.36,8.04-1.52l0.19,0.52    c-2.27,1-2.97,3.32-2.1,6.97c-1.25,3.63-2.18,7.5-2.79,11.61c-0.5,3.22-0.79,6.6-0.88,10.12c-1.42,0.44-2.83,0.79-4.23,1.05    c-0.26-3.46-0.35-6.92-0.28-10.36c0.07-4.74,0.44-9.47,1.11-14.21c-6.43,1.46-12.4,1.18-17.91-0.83l-0.66-4.7l0.66,4.7l1.05,7.6    l-1.71-1.27l1.71,1.27l2.52,17.08c-1.99,0.15-4,0.17-6.03,0.06l-2.16-17.85l-4.28-6.69l3.51,2.63l-3.51-2.63l1.24-2.6l-5.64-2.29    c0.11-0.5,0.23-0.99,0.36-1.46c0.2-0.77,0.41-1.55,0.64-2.32C58.49,247.12,59.13,247.5,59.76,247.87z M64.76,258.02l4.73,3.51    l-1.16-6.3l-4.23-2.1l-0.25-1.71l0.25,1.71L64.76,258.02z" class="st21"/><path data-cppathid="10024" d="M67.69,279.93c-4.7-0.26-9.54-1.23-14.51-2.9c0.26-8.9,1.48-17.74,3.68-26.53l5.64,2.29l-1.24,2.6l4.28,6.69    L67.69,279.93z M87.23,280.6c-4.51,0.77-9.02,0.53-13.52-0.72L71.2,262.8l-1.05-7.6c5.51,2.01,11.48,2.29,17.91,0.83    c-0.66,4.74-1.03,9.47-1.11,14.21C86.88,273.68,86.97,277.13,87.23,280.6z M69.49,261.53l-4.73-3.51l-0.66-4.89l4.23,2.1    L69.49,261.53z" class="st22"/><path data-cppathid="10025" d="M91.46,279.55c-0.07,2.82-0.02,5.74,0.17,8.76c-1.47,0.42-2.94,0.73-4.39,0.91v-8.62    C88.63,280.34,90.04,279.99,91.46,279.55z M68.77,289.06l-1.08-9.12c2.03,0.11,4.04,0.09,6.03-0.06l1.19,8.18    C72.86,288.59,70.81,288.93,68.77,289.06z" class="st23"/><path data-cppathid="10026" d="M67.69,279.93l1.08,9.12c-4.02,0.2-8.03-0.41-12.05-1.85c-1.16-0.42-2.32-0.91-3.48-1.47    c-0.13-2.91-0.15-5.81-0.06-8.71C58.15,278.71,62.99,279.68,67.69,279.93z M74.9,288.06l-1.19-8.18c4.5,1.25,9,1.49,13.52,0.72    v8.62c-3.34,0.44-6.67,0.27-10.01-0.53C76.45,288.51,75.68,288.3,74.9,288.06z" class="st24"/><path data-cppathid="10027" d="M122.03,460.78l-4.64,1.88l-2.43,0.97c-4.35-6.47-7.03-13.73-8.04-21.78c-0.07-0.59-0.14-1.19-0.19-1.8    c2.12-3.04,4.29-5.09,6.52-6.14c3.02-1.42,6.15-0.99,9.37,1.3C121.23,444.74,121.03,453.26,122.03,460.78z M92.51,442.15    c-0.98,7.74-3.56,14.72-7.74,20.95l-6.8-2.74c0.96-7.24,0.77-15.44-0.55-24.6c1.33-0.94,2.64-1.55,3.95-1.82    c3.92-0.87,7.7,1.3,11.33,6.5C92.65,441.01,92.58,441.58,92.51,442.15z" class="st25"/><path data-cppathid="10028" d="M124.32,482.97c3.63,6.19,8.83,9.64,15.59,10.34c3.57,0.35,7.59-0.06,12.05-1.22    c-0.17,0.99-0.39,2.03-0.66,3.1c-14,3.83-23.66,0.05-28.97-11.36c-6.82-5.36-12.12-10.94-15.92-16.72v-2.87    c1.11,1.6,2.3,3.2,3.59,4.78C113.93,473.82,118.7,478.48,124.32,482.97z M49.2,490.46c12.38,3.24,21.24,0.32,26.56-8.76    c5.4-4.33,9.99-8.81,13.76-13.43c1.25-1.51,2.4-3.04,3.45-4.59v2.76c-3.65,5.56-8.75,10.93-15.31,16.09    c-5.09,10.96-14.36,14.6-27.83,10.92C49.56,492.42,49.35,491.42,49.2,490.46z" class="st26"/><path data-cppathid="10029" d="M123.52,104.01c-0.53,2.03-1.21,4.02-2.02,5.97c-0.26,0.59-0.53,1.19-0.8,1.8    c-2.06,4.29-4.84,8.37-8.32,12.22c-1,1.07-2.04,2.13-3.12,3.18c6.96-0.06,13.64-1.14,20.01-3.26c3.21-4.24,5.98-8.6,8.32-13.07    c3.65-6.98,6.22-14.25,7.71-21.81c-0.26,7.52-1.91,14.83-4.95,21.95c-1.09,2.52-2.35,5.03-3.79,7.52 M130.13,35.38    c-2.05,0.06-4.2,0.49-6.47,1.3 M130.13,35.38c6.89-0.22,12.49,3.86,16.8,12.24c8.18,18.65,12.39,37.29,12.63,55.91    c-2.73,2.95-5.54,5.62-8.43,8.02c-5.29,4.37-10.85,7.82-16.69,10.36c0.74-1.14,1.45-2.28,2.13-3.43 M122.08,37.29    c0.53-0.24,1.06-0.44,1.58-0.61 M94.97,26.37c4.22,0.65,8.83,1.95,13.82,3.92c5.27,2.01,9.7,4.34,13.29,6.99 M94.97,26.37    c-8.68-1.33-15.78,0.11-21.31,4.31c-2.28,1.73-4.3,3.94-6.05,6.63 M69.35,30.79c-5.36,0.59-9.64,3.03-12.82,7.32 M63.85,38.97    c-3.7,0.9-6.99,2.05-9.87,3.45C41.06,48.71,36.48,60.04,40.22,76.4c1.95,8.14,5.07,15.64,9.34,22.5 M66.2,41.77    c-0.74,3.67-1.13,7.19-1.19,10.56c-0.06,3.1,0.18,6.07,0.72,8.93c1.33,7.32,4.55,13.8,9.67,19.46 M78.83,41.77    c-1.33,5.79-2.14,11.42-2.43,16.89c0.61,0.92,1.23,1.82,1.88,2.71c5.66,7.74,12.03,13.17,19.13,16.31    c2.16,0.96,4.38,1.7,6.66,2.21 M92.4,40.6c10.24,5.69,16.84,12.7,19.79,21.03c2.03,5.77,2.29,12.17,0.8,19.21    c-3.08,0.02-6.05-0.3-8.93-0.97c1.33,5.4,3.6,8.69,6.83,9.87c3.94-8.02,7.19-12.51,9.73-13.49c0.72-0.28,1.38-0.27,1.99,0.03    c0.9,0.42,1.68,1.47,2.32,3.15c0.26,1.4,0.48,2.75,0.66,4.04c4.68-7.98,7.35-15.2,8.02-21.67c0.99-9.99-2.85-18.16-11.53-24.52     M69.35,30.79c1.36-0.17,2.8-0.2,4.31-0.11 M53.98,42.43c0.76-1.6,1.6-3.04,2.54-4.31 M58.35,68.88c-0.35-2.67-0.3-5.23,0.17-7.68    c0.11-0.7,0.27-1.38,0.47-2.05c-0.52,0.66-1,1.34-1.46,2.05c-7.48,11.17-8.33,24.7-2.54,40.6c0.24-2.34,0.7-4.8,1.38-7.38    c2.1-7.37,2.97-14.74,2.6-22.11C58.68,71.15,58.48,70,58.35,68.88z M76.4,58.65c-0.06,0.9-0.09,1.8-0.11,2.68    c-0.2,8.02,0.73,15.69,2.79,23.02c-1.33-1.18-2.55-2.4-3.68-3.65 M65.01,52.32c-2.25,2.23-4.26,4.51-6.03,6.83 M54.98,101.8    c-0.17,1.49-0.25,2.94-0.25,4.34c0.07,11.41,5.92,19.51,17.55,24.32c4.85,1.03,9.16,0.69,12.94-1.02    c2.47-1.14,4.71-2.87,6.72-5.17 M84,134.27l-3.07,12.19l-0.04,0.03l-5.29,3.01c0,0.02,0,0.04,0,0.06 M54.73,106.14    c-1.88-2.34-3.6-4.75-5.17-7.24 M112.55,101.44c-0.55-0.33-1.11-0.72-1.66-1.16 M125.59,83.47c1.18,8.66,0.26,14.26-2.76,16.8    c-3.63,2.58-7.06,2.97-10.28,1.16c-0.64,0.87-1.26,1.73-1.85,2.6c-0.94,1.35-1.82,2.71-2.65,4.09c0.29,2.63,0.15,5.28-0.44,7.93     M96.38,177.39c1.97-10.31,5.19-18.59,9.65-24.83c0.04-0.05,0.07-0.1,0.11-0.15c-0.04-0.05-0.07-0.1-0.11-0.15    c-0.78-1.11-1.64-2.05-2.57-2.81 M84.25,201.33c-0.04,1.01-0.06,2.04-0.06,3.07c3.08,2.03,6.36,2.03,9.84,0    c0.02-1.71,0.06-3.39,0.11-5.03c0.06-2.23,0.16-4.39,0.3-6.5c0.26-3.85,0.64-7.5,1.16-10.95c0.15-1,0.31-1.97,0.5-2.93    c0.09-0.55,0.18-1.09,0.28-1.6 M97.29,146.91c0-0.14-0.01-0.28-0.01-0.41c-0.12-3.91,0.11-7.78,0.69-11.61    c1.38-9.14,4.74-18.06,10.07-26.75 M97.29,146.91c1.65,0.17,3.15,0.64,4.52,1.41c0.57,0.32,1.12,0.7,1.64,1.13 M97.29,146.91v0.06    c-0.27,0.45-0.55,0.9-0.82,1.35c-2.71,4.67-4.97,9.9-6.79,15.67c-0.68,2.21-1.31,4.5-1.88,6.85c-0.83,3.5-1.51,7.18-2.05,11.03    c-0.55,3.83-0.96,7.84-1.22,12.02c-0.11,1.84-0.19,3.72-0.25,5.64c-0.04,0.59-0.06,1.19-0.06,1.8 M104.37,167.88    c0-0.02,0.01-0.04,0.03-0.06c0.52-1.17,1.06-2.28,1.63-3.33c1.92-3.55,4.12-6.35,6.58-8.42c-2.1-1.44-4.26-2.66-6.47-3.68     M118.44,160.75c2.43,2.25,4.77,4.82,7.02,7.71l-2.38,7.08l17.72,21.56c9.53,10.98,7.12,18.2-7.21,21.64    c-4.2,0.26-8.44,0.33-12.71,0.22l4.15,15.06c3.15,0.31,4.48,2.69,3.98,7.13c0.28,0.31,0.55,0.64,0.83,0.97    c5.01,5.97,8.43,13.08,10.25,21.34c0.13,0.92,0.12,1.82-0.03,2.71l2.65,4.81c0.02-0.04,0.05-0.06,0.08-0.08    c1.88-1.95,3.77-1.98,5.67-0.08c0.07,0.13,0.14,0.26,0.19,0.39c0.64,1.49,0.19,2.98-1.35,4.48c-1.79,1.92-3.61,3.22-5.47,3.9    c-1.03,2.05-2.17,4.04-3.43,5.97c-4.24,6.52-9.71,12.4-16.42,17.63c-2.97,1.42-5.96,2.41-8.98,2.99c-1.16,0.2-2.32,0.35-3.48,0.44    c-0.86,16.98-2.02,33.22-3.48,48.73c-0.73,7.78-1.55,15.39-2.43,22.8c0.87,2.46,1.68,5.02,2.43,7.67    c3.32,11.69,5.57,25.25,6.74,40.67c0.18,2.43,0.34,4.91,0.47,7.44c3.02-1.42,6.15-0.99,9.37,1.3c-1.38,9.53-1.58,18.05-0.58,25.57    l2.21,1.35l3.4,2.1l0.83,0.52l3.4,2.1l0.99,0.61l3.95,2.43l3.7,2.29c9.29,3.19,13.1,9.82,11.44,19.9    c-0.17,0.99-0.39,2.03-0.66,3.1c-14,3.83-23.66,0.05-28.97-11.36c-6.82-5.36-12.12-10.94-15.92-16.72v-2.87v-5.11l-5.94-14.79    l2.65-1.02c-0.39-1.09-0.76-2.16-1.11-3.21c-0.83-2.45-1.61-4.87-2.35-7.27c-0.66-2.16-1.27-4.27-1.82-6.36    c-0.59-2.1-1.12-4.18-1.6-6.25l-0.64,23.13l3.1,1.19l-5.72,14.21v4.92v2.76c-3.65,5.56-8.75,10.93-15.31,16.09    c-5.09,10.96-14.36,14.6-27.83,10.92c-0.28-1.03-0.49-2.03-0.64-2.99c-0.13-0.81-0.22-1.6-0.28-2.38    c-0.52-6.47,1.62-11.28,6.41-14.43c1.4-0.92,3.02-1.7,4.86-2.32l3.57-2.21l2.18-1.35l1.6-0.99l0.97-0.58l1.82-1.11l1.44-0.91    l0.8-0.5l2.4-1.47l0.86-0.55l2.13-1.3c0.96-7.24,0.77-15.44-0.55-24.6c1.33-0.94,2.64-1.55,3.95-1.82    c-0.28-1.36-0.54-2.72-0.8-4.06c-3.92-19.73-6.01-38.01-6.25-54.84c-9.16-18.5-14.92-46.04-17.27-82.61    c-0.13-1.73-0.24-3.47-0.33-5.22c-1.16-0.42-2.32-0.91-3.48-1.47c-0.13-2.91-0.15-5.81-0.06-8.71c0.26-8.9,1.48-17.74,3.68-26.53    c0.11-0.5,0.23-0.99,0.36-1.46c-7.65-0.41-11.88-2.91-12.69-7.52c-0.13-0.77-0.17-1.6-0.11-2.49c0.68-1.93,1.71-2.44,3.1-1.52    c0.5-2.69,1.9-3.1,4.2-1.24c0.13-1.77,0.84-3.54,2.13-5.31L35.46,213.3c-9.8-9.66-11.03-17.85-3.68-24.57l11.08-10.97l2.38-2.35    c-0.35-2.69-0.18-5.67,0.5-8.93l4.45-2.52l9.04-5.14l2.71-1.55L72,151.55l3.57-2.02l0.03-0.03 M112.6,156.08    c1.99,1.36,3.93,2.92,5.83,4.67 M85.21,129.44L84,134.27 M61.06,164.6c0.24-0.37,0.49-0.73,0.75-1.08    c0.79-1.07,1.67-2.08,2.63-3.04l3.79-4.48l3.79-4.45 M51.6,172.28c1,2.51,2.53,4.39,4.62,5.67c0.11-0.96,0.26-1.88,0.44-2.76    c0.83-3.96,2.29-7.49,4.39-10.59c-0.98-1.2-1.57-2.46-1.77-3.79v-0.03 M59.23,158.82c-0.07,0.66-0.06,1.32,0.06,1.96     M76.06,159.87c0.63,4.18,1.86,6.8,3.7,7.85c2.32,1.31,5.63,0.06,9.92-3.73 M68.21,156c2.3,2.19,4.92,3.48,7.85,3.87    c-0.42-2.76-0.58-6.2-0.47-10.31 M77.83,193.95c2.21,0.15,4.45,0.13,6.72-0.06 M78.08,181.46c2.54,0.29,5.1,0.43,7.68,0.41     M45.25,175.4c0.22,1.77,0.67,3.42,1.35,4.95 M51.6,172.28c-0.92-2.27-1.39-5.04-1.41-8.32 M56.25,189.64    c-0.13-1.11-0.22-2.19-0.28-3.26c-0.18-2.98-0.1-5.8,0.25-8.43 M53.23,187.92c0.92,0.61,1.93,1.18,3.01,1.71    c0.37,3.1,0.99,6.36,1.85,9.78c0.57,2.28,1.26,4.65,2.07,7.1c0.31,1.25,0.6,2.49,0.86,3.7c0.61,3.11,0.98,6.1,1.11,8.96    c2.54,1.49,5.2,2.29,7.96,2.4c0.5,0.02,0.99,0.01,1.49-0.03c0.04-0.44,0.06-0.88,0.08-1.33 M53.23,187.92    c-3.1-2.05-5.31-4.57-6.63-7.57 M40.41,196.24c0.92,0.63,1.82,1.36,2.71,2.21l10.12-10.53 M71.78,215.06    c0.02,1.73-0.02,3.45-0.11,5.17c2.62,0.77,5.23,1.19,7.85,1.24c0.87,0,1.73-0.03,2.6-0.08c0.13,0.15,0.29,0.29,0.47,0.44    c0.53,0.46,1.21,0.85,2.02,1.16 M77.25,214.01c-5.42,0.02-10.83-1.24-16.22-3.79 M61.61,228.5c-2.76-2.67-5.4-6.76-7.9-12.27    c-3.21-8.14-6.73-14.07-10.59-17.77 M80.4,209.65c0.48,0.88,1.19,1.66,2.13,2.32 M79.88,203.87c-0.48,2.28-0.3,4.21,0.53,5.78     M76.87,204.15c0.99-0.04,2-0.13,3.01-0.28c0.96-2.47,2.43-3.92,4.42-4.34 M80.87,216.5c0.48,0.63,1.13,1.17,1.96,1.63     M77.25,214.01c0.83,0,1.67-0.04,2.52-0.11c-0.17-1.23,0.05-2.65,0.64-4.26 M113.35,189.25l9.12,10.42l1.49,1.71 M136.37,206.66    c-3.13-4.37-7.27-6.13-12.41-5.28c-2.23,0.35-4.64,1.2-7.24,2.54c-0.74,0.39-1.49,0.81-2.27,1.27c-2.17,1.27-4.34,2.14-6.5,2.6    c-0.65,0.14-1.29,0.25-1.93,0.32c-1.56,0.16-3.12,0.12-4.67-0.12c-0.94-3.61-2.1-6.1-3.48-7.46c-1.11-1.11-2.35-1.49-3.73-1.16     M82.59,221.84c0.28,2.28,1.24,3.36,2.9,3.23c0.59,0.06,1.16,0.09,1.71,0.11c3.57,0.17,6.5-0.2,8.76-1.11    c1.14-0.46,2.13-1.05,2.96-1.77c1.4-1.27,2.31-2.95,2.74-5.03c1.46,0.21,2.92,0.41,4.37,0.58c1.7,0.21,3.4,0.39,5.09,0.55    c3.26,0.28,6.51,0.46,9.76,0.55 M82.12,221.39c-1.14-1.22-1.56-2.85-1.24-4.89c-0.61-0.76-0.98-1.62-1.11-2.6 M76.87,204.15    c-6.43,0.29-12.69-1.28-18.77-4.73 M56.66,175.18c7.08,3.35,14.22,5.45,21.42,6.27 M55.97,186.38c6.98,4.53,14.27,7.06,21.86,7.57     M119.9,171.64l3.18,3.9 M115.51,177.12c1.36-2.23,2.83-4.05,4.39-5.47c1.73-1.57,3.58-2.63,5.56-3.18 M109.42,192.1l3.37-2.43    l0.55-0.41l-2.21-2.54C110.53,188.38,109.96,190.18,109.42,192.1z M111.14,186.71c1.31-3.76,2.76-6.96,4.37-9.59 M98.84,181.65    l0.88,0.88c1.27-5.68,2.82-10.56,4.64-14.65 M102.18,184.94l3.12,3.1c0.21-1.22,0.45-2.42,0.72-3.59c0.98-4.27,2.35-8.2,4.12-11.8    c2.16-4.48,4.92-8.44,8.29-11.88 M102.18,184.94l-0.5,1.82l6.27,21.03 M101.69,186.76l-1.49,5.33l-2.32,8.43 M94.44,192.87    l5.75-0.77 M99.72,182.53l2.46,2.4 M95.61,181.93l3.23-0.28L96.1,179 M116.72,203.93l-3.92-14.26 M105.31,188.03l4.12,4.06     M79.22,171.09c2.76,0.28,5.63,0.19,8.6-0.25 M61.8,163.52c5.27,4.42,11.07,6.95,17.41,7.57 M120.7,111.78    c-4.35,6.34-9.88,10.61-16.58,12.82c1.68-2.86,2.84-5.7,3.48-8.54 M137.4,272.22l-0.55-0.99l-2.82-5.14l-2.5,2.31l-0.48,0.43    l-0.41,0.4l-3.81,3.5l2.42,4.49l0.14,0.28c-6.87,5.02-11.39,3.57-13.58-4.33c-1.7-7.52-3.57-13.17-5.61-16.94    c-0.04,0.15-0.07,0.3-0.11,0.47c0.72,6.1,1.7,12,2.93,17.72 M129.55,277.81l1.69,3.15l2.68-2.04c-0.5-0.26-0.99-0.55-1.49-0.88    l-1.63-2.38l-1.6-2.35l4.12-3.23l2.35,3.98c0.88,0.04,1.74-0.06,2.57-0.28l-0.83-1.55 M138.23,273.77c1.6-0.44,3.1-1.37,4.48-2.79     M140.05,266.17c-0.33,1.93-1.3,3.8-2.9,5.58 M133.91,278.91c2.71,1.38,5.34,1.6,7.91,0.66 M125.79,236.84l-0.77-2.82     M116.97,238.14l-1.02-3.43c-1.38,1.42-1.58,3.54-0.61,6.36l1.91-0.22C116.79,239.75,116.69,238.84,116.97,238.14l8.82-1.3    c0.74,0.68,0.99,1.65,0.75,2.9 M127.56,239.61c0.5,0.52,0.98,1.03,1.44,1.55 M123.63,242.32l3.92-2.71l-1.02,0.14l-9.29,1.11     M110.5,251.38l13.13-9.07 M104.39,234c0.52,0.88,1.07,1.74,1.63,2.6c1.19,1.8,2.48,3.55,3.87,5.25l-4.67,3.95l0.55,1.3l9.56-6.03     M97.68,228.08l3.15-0.97c-0.7-1.57-1.34-3.17-1.91-4.81 M100.88,235.6l-3.21-7.52l-1.71-4.01 M100.83,227.12    c1.03,2.36,2.22,4.65,3.57,6.88l-3.51,1.6l4.34,10.2 M88.56,228.61l0.5,1.27l2.96,7.6l5.03,12.85l0.19,0.52l1.19,3.04    c1.58-0.22,3.17-0.6,4.75-1.13c0.94-0.32,1.89-0.71,2.85-1.15c0.46-0.21,0.92-0.44,1.38-0.68l-1.08-2.54l-0.55-1.3 M88.2,247.62    c-0.68,0.04-1.42,0.1-2.21,0.19c-0.22,0.02-0.44,0.04-0.66,0.06l-15.84,2.63l0.66,4.7 M87.23,280.6c1.4-0.26,2.81-0.61,4.23-1.05    c0.09-3.52,0.39-6.89,0.88-10.12c0.61-4.11,1.54-7.98,2.79-11.61c-0.87-3.65-0.17-5.97,2.1-6.97 M89,251.85l-0.8-4.23    C95.77,247.07,96.04,248.48,89,251.85c2.12,0.15,4.8-0.36,8.04-1.52 M98.04,259.51l8.1-1.99l2.16-0.53    c0.88-3.37,0.59-5.39-0.88-6.05 M98.04,259.51c-1.53-3.15-1.4-5.02,0.39-5.61 M95.22,266.94l-0.17,1.96l9.37-1.38l5.64-0.83    v-10.01l-1.77,0.3 M95.14,257.82c0.15,0.7,0.36,1.45,0.64,2.24l2.27-0.55 M104.64,279.57l5.42-0.83l5.28,22.36    c-1.09,0.99-2.23,1.8-3.43,2.4c-1.01,0.52-2.07,0.89-3.18,1.13c-0.88,0.2-1.78,0.31-2.71,0.33c-3.16,0.07-6.62-0.87-10.39-2.82    l-0.17-2.96 M93.45,303.68c0,0.04,0,0.07,0,0.11c4.23,1.77,8.42,2.73,12.58,2.89c1.16,0.04,2.32,0.02,3.48-0.07 M95.22,266.94    l0.55-6.88 M129.37,277.49l0.18,0.32 M106.33,248.4c2.41-0.35,3.81,0.64,4.17,2.99c0.17,1.23,0.06,2.85-0.33,4.84 M84.16,230.32    c-0.55,0.02-1.11,0.04-1.66,0.06c-4,0.07-7.93-0.26-11.8-1c-0.09,0.46-0.18,0.92-0.25,1.38c-0.42,2.4-0.96,4.77-1.6,7.13    c5.38,1.01,10.78,1.25,16.2,0.72c2.32-0.24,4.64-0.62,6.97-1.13 M70.45,230.76c-1.03-0.04-2.06-0.15-3.1-0.33    c-1.93-0.37-3.85-1.01-5.75-1.93 M63.43,240.44c1.35,0.55,2.8,0.88,4.37,0.97c0.37-1.18,0.72-2.35,1.05-3.51 M64.59,249.81    c-0.24,0.53-0.49,1.07-0.75,1.6l5.64-0.91 M67.8,241.4c-0.92,2.84-1.99,5.64-3.21,8.4 M58.87,237.34    c1.27-2.76,2.18-5.71,2.74-8.84 M51.49,242.48l-0.58,1.11 M57.85,246.71c0.64,0.41,1.28,0.79,1.91,1.16    c1.6,0.87,3.22,1.51,4.84,1.93 M63.43,240.44c-1.71-0.68-3.23-1.71-4.56-3.1c-1.14,2.43-2.57,4.72-4.28,6.85    c1.09,0.94,2.17,1.78,3.26,2.52 M61.25,255.39l3.51,2.63l-0.66-4.89l-0.25-1.71 M52.52,240.44c0.2,0.46,0.45,0.92,0.75,1.38     M57.21,249.03c0.2-0.77,0.41-1.55,0.64-2.32 M52.52,240.44l-1.02,2.05c-1.57-2.58-2.89-4.24-3.98-4.98 M51.71,236.26    c-0.09,1.38,0.17,2.77,0.8,4.17 M69.49,261.53l1.71,1.27l-1.05-7.6 M64.76,258.02l4.73,3.51 M67.69,279.93    c2.03,0.11,4.04,0.09,6.03-0.06L71.2,262.8 M67.69,279.93c-4.7-0.26-9.54-1.23-14.51-2.9 M77.23,288.7l0.55,4.01l10.48,76.62    c1.05,3.91,2.4,6.93,4.04,9.07c1.58,2.08,3.45,3.33,5.61,3.73 M74.9,288.06c0.77,0.24,1.55,0.45,2.32,0.64    c3.34,0.79,6.67,0.97,10.01,0.53c1.46-0.18,2.92-0.49,4.39-0.91c-0.18-3.02-0.24-5.94-0.17-8.76 M87.23,280.6    c-4.51,0.77-9.02,0.53-13.52-0.72l1.19,8.18 M68.77,289.06c2.05-0.13,4.09-0.46,6.14-0.99 M56.72,287.2    c4.02,1.44,8.03,2.05,12.05,1.85 M120.26,298.92c0.55,1.44,1.12,2.86,1.71,4.26 M110.06,278.75l-0.3,7.35l2.16,17.41     M109.76,286.1l-0.44,10.31c-1.09,0.39-2.19,0.68-3.29,0.87c-3.49,0.62-7.06,0.28-10.7-1.01l0.14,2.93 M93.92,293.06l0.83-11.97    l9.89-1.52 M95.33,296.27c-0.53-0.18-1.07-0.39-1.6-0.61l0.19-2.6 M91.63,288.31c0.28,4.86,0.88,9.99,1.82,15.37 M120.26,298.92    c-3-7.7-5.43-15.87-7.27-24.52 M84.16,230.32c1.62-0.09,3.25-0.24,4.89-0.44 M74.32,375.04c1.44,2.93,2.97,5.63,4.59,8.1     M95.61,443.37l-0.66-0.28l-2.43-0.94c-0.98,7.74-3.56,14.72-7.74,20.95l-6.8-2.74 M90.16,461.36c0.63-1.09,1.57-1.95,2.82-2.6     M92.51,442.15c0.07-0.57,0.14-1.14,0.19-1.71c-3.63-5.2-7.41-7.36-11.33-6.5 M106.91,441.85c-0.07-0.59-0.14-1.19-0.19-1.8    c2.12-3.04,4.29-5.09,6.52-6.14 M103.12,443.31l3.79-1.46 M92.29,378.39c-1.01,12.59,0.3,26.53,3.95,41.85 M87.2,225.18l1.35,3.43     M62.13,219.18c0.15,3.26-0.03,6.37-0.53,9.31 M115.95,234.72l-4.84-16.31 M71.59,221.56c-0.18,2.63-0.48,5.24-0.88,7.82     M37.95,194.89c0.83,0.37,1.65,0.82,2.46,1.35 M133.36,474.29c2.29-1.27,4.67-1.97,7.16-2.1 M139.91,493.31    c3.57,0.35,7.59-0.06,12.05-1.22 M131.81,473.16l5-3.26 M114.95,463.63c-4.35-6.47-7.03-13.73-8.04-21.78 M114.95,463.63    l2.43-0.97l4.64-1.88 M117.27,468.88c0.41,0.39,0.93,0.74,1.58,1.05l4.51-2.93l4.28-2.76 M120.01,464.57l-3.79,2.16    c0.02,0.81,0.37,1.53,1.05,2.16 M124.24,462.13l-4.23,2.43 M124.13,467.55l4.34-2.79 M124.13,467.55l-4.7,3.01    c0.02,0.63,0.18,1.17,0.5,1.63c0.44,0.66,1.16,1.11,2.16,1.35l9.78-6.69 M123.44,476.04c0.46,0.52,1.13,0.94,2.02,1.27l6.36-4.15     M92.98,463.68c-1.05,1.55-2.2,3.08-3.45,4.59c-3.78,4.62-8.37,9.1-13.76,13.43c-5.33,9.08-14.18,12-26.56,8.76 M89.52,468.27    c-0.22-1.09-0.33-2.08-0.33-2.99c0-1.53,0.32-2.84,0.97-3.92 M73.63,478.91c0.72,0.85,1.43,1.78,2.13,2.79 M128.19,470.54    l-5.56,3.62c0.06,0.72,0.32,1.35,0.8,1.88 M106.41,464.23c1.11,1.6,2.3,3.2,3.59,4.78c1.01-4.81-0.18-8.11-3.59-9.89     M110.01,469.02c3.92,4.81,8.7,9.46,14.32,13.96c2.8-4.02,5.81-6.91,9.04-8.68 M75.7,471.12l2.21,1.52    c1.64-0.41,2.49-1.36,2.54-2.87l-8.68-5.58 M79.13,467.91l1.91,1.24c1.64-0.79,2.48-1.82,2.52-3.1l-7.71-4.39 M75.7,471.12    l-7.19-4.92 M79.13,467.91l-6.55-4.23 M67.55,466.78l9.84,6.44c-0.11,1.38-1.01,2.4-2.71,3.04l-2.65-1.74l-8.26-5.39     M73.63,478.91c-4.07-4.81-8.55-7.33-13.43-7.57 M132.86,467.47l-4.67,3.07 M124.32,482.97c3.63,6.19,8.83,9.64,15.59,10.34" class="st27"/></g><use style="overflow:visible;" transform="matrix(0.5528 0 0 -0.226 87.4241 98.2054)" y="-23.6" x="-23.6" height="47.2" width="47.2" xlink:href="#Symbol_11"/><use style="overflow:visible;" transform="matrix(0.3159 0 0 -0.171 64.0059 97.3479)" y="-23.6" x="-23.6" height="47.2" width="47.2" xlink:href="#Symbol_11"/></g><g><g><path data-cppathid="10030" d="M77.25,440.46c5.23-0.18,10.55,1.91,15.95,6.27c0.53,0.99,0.25,1.8-0.86,2.4c-4.9-3.85-9.87-5.94-14.9-6.27    C76.84,442.08,76.77,441.27,77.25,440.46z M123.41,451.85c0.41,0.76,0.36,1.47-0.14,2.13c-4.16-0.04-8.27,1.49-12.33,4.59    c-0.92-0.61-1.16-1.34-0.72-2.18C114.7,452.86,119.1,451.35,123.41,451.85z M123.52,456.44c0.35,0.65,0.3,1.26-0.14,1.85    c-3.63-0.04-7.2,1.26-10.72,3.9c-0.81-0.5-1.02-1.12-0.64-1.88C115.91,457.31,119.74,456.02,123.52,456.44z M123.44,446.41    c0.46,0.88,0.41,1.71-0.17,2.49c-4.72-0.02-9.36,1.8-13.93,5.44c-1.05-0.72-1.33-1.58-0.83-2.6    C113.58,447.61,118.56,445.83,123.44,446.41z M122.77,440.08c0.5,0.85,0.43,1.69-0.19,2.52c-5.23,0.35-10.39,2.52-15.48,6.52    c-0.56-0.3-0.91-0.65-1.08-1.04c-0.14-0.33-0.14-0.7,0-1.09c0.04-0.13,0.1-0.26,0.17-0.39    C111.81,442.07,117.34,439.89,122.77,440.08z M90.19,454.15c-4.4-3.5-8.87-5.24-13.41-5.22c-0.55-0.76-0.61-1.56-0.17-2.4    c4.7-0.55,9.48,1.17,14.34,5.17C91.44,452.64,91.18,453.46,90.19,454.15z M86.98,461.72c-3.39-2.52-6.83-3.78-10.31-3.76    c-0.42-0.55-0.47-1.14-0.14-1.77c3.63-0.41,7.32,0.84,11.06,3.73C87.96,460.62,87.76,461.22,86.98,461.72z M88.64,458.26    c-3.91-2.97-7.86-4.43-11.86-4.39c-0.48-0.65-0.53-1.34-0.14-2.07c4.15-0.48,8.37,0.98,12.69,4.37    C89.75,456.99,89.52,457.69,88.64,458.26z" class="st2"/><path data-cppathid="10031" d="M77.25,440.46c5.23-0.18,10.55,1.91,15.95,6.27c0.53,0.99,0.25,1.8-0.86,2.4c-4.9-3.85-9.87-5.94-14.9-6.27    C76.84,442.08,76.77,441.27,77.25,440.46z M122.77,440.08c-5.44-0.18-10.96,1.99-16.58,6.52c-0.07,0.13-0.12,0.26-0.17,0.39    c-0.14,0.39-0.14,0.76,0,1.09c0.16,0.39,0.52,0.74,1.08,1.04c5.09-4,10.25-6.17,15.48-6.52    C123.21,441.76,123.27,440.92,122.77,440.08z M123.44,446.41c-4.88-0.57-9.86,1.21-14.93,5.33c-0.5,1.01-0.22,1.88,0.83,2.6    c4.57-3.65,9.21-5.46,13.93-5.44C123.84,448.12,123.9,447.29,123.44,446.41z M123.52,456.44c-3.78-0.42-7.61,0.87-11.5,3.87    c-0.39,0.76-0.18,1.38,0.64,1.88c3.52-2.63,7.09-3.93,10.72-3.9C123.82,457.7,123.87,457.08,123.52,456.44z M123.41,451.85    c-4.31-0.5-8.71,1.01-13.18,4.53c-0.44,0.85-0.2,1.58,0.72,2.18c4.05-3.1,8.16-4.63,12.33-4.59    C123.77,453.32,123.82,452.61,123.41,451.85z M90.19,454.15c-4.4-3.5-8.87-5.24-13.41-5.22c-0.55-0.76-0.61-1.56-0.17-2.4    c4.7-0.55,9.48,1.17,14.34,5.17C91.44,452.64,91.18,453.46,90.19,454.15z M86.98,461.72c-3.39-2.52-6.83-3.78-10.31-3.76    c-0.42-0.55-0.47-1.14-0.14-1.77c3.63-0.41,7.32,0.84,11.06,3.73C87.96,460.62,87.76,461.22,86.98,461.72z M88.64,458.26    c-3.91-2.97-7.86-4.43-11.86-4.39c-0.48-0.65-0.53-1.34-0.14-2.07c4.15-0.48,8.37,0.98,12.69,4.37    C89.75,456.99,89.52,457.69,88.64,458.26z" class="st27"/></g><use style="overflow:visible;" transform="matrix(0.5528 0 0 -0.5528 87.5822 86.876)" y="-16.44" x="-13.41" height="32.89" width="26.82" xlink:href="#Symbol_8"/><use style="overflow:visible;" transform="matrix(0.5528 0 0 -0.5528 88.6263 89.2226)" y="-9.3" x="-7.77" height="18.6" width="15.55" xlink:href="#Symbol_9"/><use style="overflow:visible;" transform="matrix(0.4405 -0.0499 -0.1045 -0.4706 65.1291 87.4249)" y="-16.44" x="-13.41" height="32.89" width="26.82" xlink:href="#Symbol_8"/><use style="overflow:visible;" transform="matrix(0.5161 0 0 -0.5161 66.3402 89.4067)" y="-9.3" x="-7.77" height="18.6" width="15.55" xlink:href="#Symbol_9"/><g><path data-cppathid="10032" d="M81.63,73.48c7.03-6.41,12.58-5.31,16.65,3.29C93.32,71.6,87.77,70.51,81.63,73.48z" class="st28"/></g><g><path data-cppathid="10033" d="M70.04,75.25c-6.63-6.3-11.94-5.14-15.93,3.49C58.9,73.52,64.21,72.36,70.04,75.25z" class="st28"/></g><g><g><path data-cppathid="10034" d="M74.27,101.74c-5.79,2.28-8.86,1.59-9.23-2.07c-0.39-3.69,1.78-5.09,6.5-4.2c0.44-1.3,0.66-2.81,0.66-4.53     c0.02-3.21-0.71-7.15-2.18-11.83c2.48,4.19,3.49,8.63,3.03,13.31c-0.13,1.22-0.35,2.46-0.68,3.72c-4.16-0.79-6.32,0.09-6.47,2.65     c0,0.17,0,0.34,0,0.53C66,102,68.8,102.81,74.27,101.74z" class="st4"/><path data-cppathid="10035" d="M65.89,98.79c2.45,1.38,5.71,1.38,9.78,0c0.06,1.09-0.41,2.07-1.41,2.96c-5.47,1.07-8.26,0.26-8.37-2.43     C65.89,99.13,65.89,98.95,65.89,98.79z" class="st13"/><path data-cppathid="10036" d="M75.68,98.79c-4.07,1.38-7.33,1.38-9.78,0c0.15-2.56,2.3-3.45,6.47-2.65c0.32-1.26,0.55-2.49,0.68-3.72     L75.68,98.79z" class="st14"/></g></g><g><g><path data-cppathid="10037" d="M122.9,84.51c-2.04-2.82-3.92-0.69-5.65,6.4c1.46,0.82,2.38,1.68,2.76,2.58c0.85,1.94-0.8,4.05-4.95,6.34     c4.9-3.78,5.14-6.59,0.72-8.43c3.16-10.27,5.57-12.67,7.23-7.23c0.08,0.26,0.16,0.54,0.23,0.84     C123.13,84.84,123.02,84.66,122.9,84.51z" class="st4"/><path data-cppathid="10038" d="M122.9,84.51c-1.82,0.69-2.78,3.68-2.89,8.98c-0.39-0.9-1.31-1.76-2.76-2.58     C118.98,83.82,120.86,81.69,122.9,84.51z" class="st13"/></g></g><g><path data-cppathid="10039" d="M84.11,106.03l1.66-1.3c1.82,1.33,2.57,3.2,2.24,5.61c-0.18-0.84-0.51-1.58-1.01-2.23    c-9.11,7.15-17.55,8.25-25.3,3.3c8.85,3.36,16.98,1.95,24.38-4.26C85.52,106.72,84.87,106.34,84.11,106.03z" class="st4"/></g></g></svg>